<svg width="236" height="70" viewBox="0 0 236 70" fill="none" xmlns="http://www.w3.org/2000/svg">
<path d="M66.56 39.79C67.64 39.79 68.41 39.6 68.87 39.22C69.35 38.82 69.59 38.35 69.59 37.81C69.59 37.31 69.4 36.91 69.02 36.61C68.66 36.29 68.12 36.02 67.4 35.8L65.81 35.29C64.73 34.93 63.77 34.53 62.93 34.09C62.11 33.65 61.47 33.08 61.01 32.38C60.57 31.68 60.35 30.79 60.35 29.71C60.35 28.05 60.98 26.73 62.24 25.75C63.5 24.77 65.25 24.28 67.49 24.28C68.63 24.28 69.64 24.39 70.52 24.61C71.42 24.83 72.12 25.16 72.62 25.6C73.14 26.02 73.4 26.54 73.4 27.16C73.4 27.62 73.29 28.02 73.07 28.36C72.87 28.68 72.61 28.96 72.29 29.2C71.83 28.88 71.22 28.61 70.46 28.39C69.7 28.15 68.86 28.03 67.94 28.03C66.98 28.03 66.26 28.19 65.78 28.51C65.3 28.81 65.06 29.21 65.06 29.71C65.06 30.11 65.22 30.44 65.54 30.7C65.86 30.94 66.34 31.16 66.98 31.36L68.63 31.87C70.45 32.43 71.85 33.18 72.83 34.12C73.81 35.04 74.3 36.28 74.3 37.84C74.3 39.52 73.65 40.89 72.35 41.95C71.05 42.99 69.17 43.51 66.71 43.51C65.49 43.51 64.4 43.38 63.44 43.12C62.48 42.86 61.71 42.48 61.13 41.98C60.57 41.48 60.29 40.9 60.29 40.24C60.29 39.72 60.44 39.28 60.74 38.92C61.06 38.54 61.41 38.26 61.79 38.08C62.33 38.52 63 38.92 63.8 39.28C64.62 39.62 65.54 39.79 66.56 39.79ZM79.187 37.9L79.007 34.9L86.447 33.73C86.407 33.17 86.167 32.65 85.727 32.17C85.287 31.69 84.637 31.45 83.777 31.45C82.877 31.45 82.127 31.76 81.527 32.38C80.927 32.98 80.607 33.84 80.567 34.96L80.717 37.03C80.897 38.13 81.367 38.92 82.127 39.4C82.887 39.86 83.787 40.09 84.827 40.09C85.667 40.09 86.457 39.97 87.197 39.73C87.937 39.49 88.537 39.24 88.997 38.98C89.297 39.16 89.537 39.41 89.717 39.73C89.917 40.05 90.017 40.39 90.017 40.75C90.017 41.35 89.777 41.85 89.297 42.25C88.837 42.65 88.187 42.95 87.347 43.15C86.527 43.35 85.587 43.45 84.527 43.45C82.987 43.45 81.597 43.16 80.357 42.58C79.137 42 78.177 41.13 77.477 39.97C76.777 38.81 76.427 37.36 76.427 35.62C76.427 34.34 76.627 33.23 77.027 32.29C77.447 31.35 77.997 30.58 78.677 29.98C79.377 29.36 80.157 28.9 81.017 28.6C81.897 28.3 82.807 28.15 83.747 28.15C85.127 28.15 86.327 28.43 87.347 28.99C88.387 29.53 89.197 30.27 89.777 31.21C90.357 32.15 90.647 33.24 90.647 34.48C90.647 35.1 90.477 35.57 90.137 35.89C89.797 36.21 89.327 36.41 88.727 36.49L79.187 37.9ZM101.147 31.69C100.067 31.69 99.1367 32.05 98.3567 32.77C97.5967 33.47 97.2167 34.5 97.2167 35.86C97.2167 37.2 97.5867 38.21 98.3267 38.89C99.0667 39.57 99.9967 39.91 101.117 39.91C101.777 39.91 102.347 39.83 102.827 39.67C103.327 39.49 103.757 39.3 104.117 39.1C104.457 39.34 104.717 39.61 104.897 39.91C105.077 40.19 105.167 40.54 105.167 40.96C105.167 41.7 104.767 42.3 103.967 42.76C103.167 43.22 102.057 43.45 100.637 43.45C99.0567 43.45 97.6667 43.17 96.4667 42.61C95.2667 42.03 94.3367 41.17 93.6767 40.03C93.0167 38.89 92.6867 37.5 92.6867 35.86C92.6867 34.12 93.0467 32.69 93.7667 31.57C94.4867 30.43 95.4367 29.58 96.6167 29.02C97.8167 28.44 99.1167 28.15 100.517 28.15C101.897 28.15 102.977 28.4 103.757 28.9C104.557 29.4 104.957 30.02 104.957 30.76C104.957 31.12 104.867 31.45 104.687 31.75C104.527 32.03 104.337 32.28 104.117 32.5C103.737 32.3 103.297 32.12 102.797 31.96C102.317 31.78 101.767 31.69 101.147 31.69ZM122.106 35.8C122.106 37.36 121.786 38.72 121.146 39.88C120.526 41.02 119.646 41.9 118.506 42.52C117.366 43.14 116.026 43.45 114.486 43.45C112.966 43.45 111.626 43.15 110.466 42.55C109.326 41.93 108.436 41.05 107.796 39.91C107.176 38.75 106.866 37.38 106.866 35.8C106.866 34.22 107.186 32.87 107.826 31.75C108.466 30.61 109.356 29.73 110.496 29.11C111.656 28.47 112.986 28.15 114.486 28.15C116.006 28.15 117.336 28.47 118.476 29.11C119.616 29.73 120.506 30.62 121.146 31.78C121.786 32.92 122.106 34.26 122.106 35.8ZM114.486 31.66C113.546 31.66 112.796 32.02 112.236 32.74C111.696 33.46 111.426 34.48 111.426 35.8C111.426 37.14 111.696 38.17 112.236 38.89C112.776 39.59 113.526 39.94 114.486 39.94C115.446 39.94 116.196 39.58 116.736 38.86C117.276 38.14 117.546 37.12 117.546 35.8C117.546 34.5 117.276 33.49 116.736 32.77C116.196 32.03 115.446 31.66 114.486 31.66ZM138.67 33.67V36.49H134.2V33.82C134.2 33.08 133.98 32.54 133.54 32.2C133.12 31.84 132.56 31.66 131.86 31.66C131.36 31.66 130.9 31.73 130.48 31.87C130.06 31.99 129.68 32.14 129.34 32.32V36.49H124.9V31.81C124.9 31.31 125 30.9 125.2 30.58C125.42 30.24 125.73 29.94 126.13 29.68C126.77 29.24 127.59 28.88 128.59 28.6C129.59 28.3 130.69 28.15 131.89 28.15C134.05 28.15 135.72 28.63 136.9 29.59C138.08 30.53 138.67 31.89 138.67 33.67ZM124.9 35.11H129.34V42.97C129.14 43.03 128.86 43.08 128.5 43.12C128.14 43.18 127.75 43.21 127.33 43.21C126.49 43.21 125.87 43.06 125.47 42.76C125.09 42.46 124.9 41.92 124.9 41.14V35.11ZM134.2 35.11H138.67V42.97C138.47 43.03 138.19 43.08 137.83 43.12C137.47 43.18 137.08 43.21 136.66 43.21C135.82 43.21 135.2 43.06 134.8 42.76C134.4 42.46 134.2 41.92 134.2 41.14V35.11ZM151.486 39.43V30.4H155.926V40C155.926 40.48 155.826 40.89 155.626 41.23C155.426 41.55 155.106 41.84 154.666 42.1C154.126 42.46 153.416 42.77 152.536 43.03C151.676 43.31 150.676 43.45 149.536 43.45C147.876 43.45 146.436 43.17 145.216 42.61C144.016 42.05 143.086 41.21 142.426 40.09C141.786 38.95 141.466 37.54 141.466 35.86C141.466 34.1 141.796 32.66 142.456 31.54C143.136 30.4 144.046 29.55 145.186 28.99C146.326 28.43 147.586 28.15 148.966 28.15C149.686 28.15 150.326 28.23 150.886 28.39C151.446 28.55 151.906 28.74 152.266 28.96V32.62C151.986 32.38 151.616 32.16 151.156 31.96C150.696 31.76 150.166 31.66 149.566 31.66C148.866 31.66 148.246 31.81 147.706 32.11C147.166 32.41 146.746 32.87 146.446 33.49C146.146 34.11 145.996 34.9 145.996 35.86C145.996 37.26 146.306 38.29 146.926 38.95C147.566 39.61 148.426 39.94 149.506 39.94C149.946 39.94 150.336 39.89 150.676 39.79C151.016 39.67 151.286 39.55 151.486 39.43ZM155.926 31.27L151.486 31.3V23.47C151.666 23.41 151.936 23.35 152.296 23.29C152.656 23.23 153.046 23.2 153.466 23.2C154.346 23.2 154.976 23.35 155.356 23.65C155.736 23.95 155.926 24.5 155.926 25.3V31.27ZM175.406 32.08V35.32H168.716V32.08H175.406ZM173.156 35.32L173.516 32.83C175.176 32.83 176.556 33.03 177.656 33.43C178.756 33.83 179.576 34.39 180.116 35.11C180.676 35.83 180.956 36.7 180.956 37.72C180.956 39.66 180.236 41.1 178.796 42.04C177.356 42.98 175.306 43.45 172.646 43.45C172.166 43.45 171.616 43.43 170.996 43.39C170.396 43.35 169.776 43.28 169.136 43.18C168.516 43.08 167.946 42.94 167.426 42.76C166.386 42.38 165.866 41.71 165.866 40.75V26.41C165.866 26.03 165.976 25.73 166.196 25.51C166.416 25.29 166.706 25.12 167.066 25C167.746 24.76 168.566 24.59 169.526 24.49C170.506 24.39 171.506 24.34 172.526 24.34C175.006 24.34 176.916 24.77 178.256 25.63C179.616 26.49 180.296 27.79 180.296 29.53C180.296 30.49 180.016 31.31 179.456 31.99C178.896 32.67 178.076 33.19 176.996 33.55C175.936 33.91 174.646 34.09 173.126 34.09L172.916 32.08C173.876 32.08 174.586 31.89 175.046 31.51C175.506 31.13 175.736 30.59 175.736 29.89C175.736 29.23 175.466 28.72 174.926 28.36C174.406 28 173.616 27.82 172.556 27.82C172.176 27.82 171.776 27.84 171.356 27.88C170.936 27.9 170.586 27.94 170.306 28V39.67C170.646 39.75 171.056 39.81 171.536 39.85C172.036 39.89 172.506 39.91 172.946 39.91C173.946 39.91 174.746 39.72 175.346 39.34C175.966 38.94 176.276 38.34 176.276 37.54C176.276 36.78 176.016 36.22 175.496 35.86C174.976 35.5 174.196 35.32 173.156 35.32ZM188.256 32.47V36.22H183.816V31.93C183.816 31.37 183.946 30.9 184.206 30.52C184.486 30.12 184.866 29.77 185.346 29.47C186.006 29.07 186.796 28.76 187.716 28.54C188.656 28.3 189.636 28.18 190.656 28.18C192.696 28.18 193.716 28.86 193.716 30.22C193.716 30.54 193.666 30.84 193.566 31.12C193.486 31.4 193.386 31.64 193.266 31.84C193.066 31.8 192.816 31.77 192.516 31.75C192.236 31.71 191.926 31.69 191.586 31.69C190.986 31.69 190.386 31.76 189.786 31.9C189.186 32.04 188.676 32.23 188.256 32.47ZM183.816 35.08L188.256 35.17V42.97C188.056 43.03 187.776 43.08 187.416 43.12C187.056 43.18 186.666 43.21 186.246 43.21C185.406 43.21 184.786 43.06 184.386 42.76C184.006 42.46 183.816 41.92 183.816 41.14V35.08ZM201.474 40.15C201.934 40.15 202.384 40.11 202.824 40.03C203.284 39.93 203.614 39.82 203.814 39.7V36.82L201.294 37.06C200.614 37.1 200.074 37.24 199.674 37.48C199.274 37.72 199.074 38.08 199.074 38.56C199.074 39.04 199.264 39.43 199.644 39.73C200.024 40.01 200.634 40.15 201.474 40.15ZM201.294 28.15C203.374 28.15 205.034 28.59 206.274 29.47C207.514 30.33 208.134 31.67 208.134 33.49V40.3C208.134 40.8 208.004 41.21 207.744 41.53C207.484 41.83 207.154 42.09 206.754 42.31C206.154 42.67 205.404 42.95 204.504 43.15C203.624 43.37 202.614 43.48 201.474 43.48C199.434 43.48 197.804 43.08 196.584 42.28C195.384 41.48 194.784 40.29 194.784 38.71C194.784 37.35 195.204 36.31 196.044 35.59C196.884 34.85 198.134 34.4 199.794 34.24L203.784 33.82V33.46C203.784 32.78 203.514 32.29 202.974 31.99C202.454 31.69 201.704 31.54 200.724 31.54C199.964 31.54 199.214 31.63 198.474 31.81C197.754 31.99 197.104 32.2 196.524 32.44C196.284 32.28 196.074 32.04 195.894 31.72C195.734 31.38 195.654 31.03 195.654 30.67C195.654 29.83 196.114 29.22 197.034 28.84C197.614 28.6 198.284 28.43 199.044 28.33C199.824 28.21 200.574 28.15 201.294 28.15ZM211.41 24.46C211.41 23.78 211.64 23.21 212.1 22.75C212.58 22.29 213.18 22.06 213.9 22.06C214.64 22.06 215.24 22.29 215.7 22.75C216.16 23.21 216.39 23.78 216.39 24.46C216.39 25.12 216.16 25.69 215.7 26.17C215.24 26.65 214.64 26.89 213.9 26.89C213.18 26.89 212.58 26.65 212.1 26.17C211.64 25.69 211.41 25.12 211.41 24.46ZM211.68 35.08H216.12V42.97C215.94 43.03 215.67 43.08 215.31 43.12C214.95 43.18 214.56 43.21 214.14 43.21C213.28 43.21 212.65 43.06 212.25 42.76C211.87 42.46 211.68 41.92 211.68 41.14V35.08ZM216.12 37.39H211.68V28.78C211.86 28.72 212.13 28.66 212.49 28.6C212.87 28.54 213.27 28.51 213.69 28.51C214.55 28.51 215.17 28.66 215.55 28.96C215.93 29.24 216.12 29.79 216.12 30.61V37.39ZM233.504 33.67V36.49H229.034V33.82C229.034 33.08 228.814 32.54 228.374 32.2C227.954 31.84 227.394 31.66 226.694 31.66C226.194 31.66 225.734 31.73 225.314 31.87C224.894 31.99 224.514 32.14 224.174 32.32V36.49H219.734V31.81C219.734 31.31 219.834 30.9 220.034 30.58C220.254 30.24 220.564 29.94 220.964 29.68C221.604 29.24 222.424 28.88 223.424 28.6C224.424 28.3 225.524 28.15 226.724 28.15C228.884 28.15 230.554 28.63 231.734 29.59C232.914 30.53 233.504 31.89 233.504 33.67ZM219.734 35.11H224.174V42.97C223.974 43.03 223.694 43.08 223.334 43.12C222.974 43.18 222.584 43.21 222.164 43.21C221.324 43.21 220.704 43.06 220.304 42.76C219.924 42.46 219.734 41.92 219.734 41.14V35.11ZM229.034 35.11H233.504V42.97C233.304 43.03 233.024 43.08 232.664 43.12C232.304 43.18 231.914 43.21 231.494 43.21C230.654 43.21 230.034 43.06 229.634 42.76C229.234 42.46 229.034 41.92 229.034 41.14V35.11Z" fill="white"/>
<path d="M47.7594 31.144C47.0161 31.0226 45.666 31.0833 44.1264 32.5319C44.0051 32.6457 43.8609 32.6912 43.7017 32.6912C43.5424 32.6912 43.3755 32.6229 43.2618 32.5016C43.0267 32.2589 43.0418 31.8645 43.2845 31.637C44.8848 30.1201 46.3866 29.8319 47.4332 29.885C47.1223 27.6551 46.068 26.2823 45.2641 25.5618H39.1055V34.6859H42.2075C42.5413 34.6859 42.8219 34.9665 42.8143 35.3003C42.8143 35.6416 42.5337 35.9146 42.2 35.907H38.4911C38.1498 35.907 37.8768 35.6416 37.8844 35.2927V25.5542H34.5472V30.4841C34.5472 30.8178 34.2666 31.0909 33.9405 31.0909H25.2032C24.9225 32.4333 23.7242 33.4421 22.2983 33.4421C20.6601 33.4421 19.3252 32.1148 19.3252 30.4765C19.3252 28.8307 20.6601 27.5034 22.2983 27.5034C23.7318 27.5034 24.9301 28.5122 25.2108 29.8622H27.7667V24.3104C26.4243 24.0222 25.4079 22.8314 25.4079 21.3979C25.4079 19.7597 26.7428 18.4324 28.3811 18.4324C30.0193 18.4324 31.3542 19.7597 31.3542 21.3979C31.3542 22.8314 30.3379 24.0297 28.9954 24.3104V29.8622H33.3337V24.9323C33.3337 24.591 33.6068 24.3255 33.9481 24.3255H44.5435C44.0581 21.9364 42.1696 20.3816 40.9182 19.5928C40.41 20.5181 39.4468 21.5193 37.9906 21.5193C37.7024 21.5193 37.399 21.4814 37.0729 21.3979C36.7467 21.3069 36.5495 20.9732 36.6405 20.6471C36.724 20.3209 37.0577 20.1237 37.3838 20.2072C38.8097 20.5864 39.5681 19.5625 39.8943 18.9178C38.1423 15.5579 34.1149 15.118 33.1213 15.0649C30.1407 12.6 26.356 13.1915 24.9756 13.5177C24.6647 13.9045 23.8835 15.1408 24.6343 16.87C24.7709 17.181 24.6268 17.5374 24.3158 17.674C24.2399 17.7043 24.1565 17.7195 24.0731 17.7195C23.838 17.7195 23.618 17.583 23.5194 17.3554C22.7155 15.5124 23.2236 14.0638 23.6939 13.2446C21.2365 12.5545 19.348 13.5025 18.7033 13.9045C13.8796 12.6986 11.0051 15.8992 10.2618 16.8776C10.2542 16.8776 10.2466 16.8776 10.2466 16.8776C7.4707 16.8776 6.00689 18.5689 5.31671 19.8052C5.94622 19.881 6.66674 20.1086 7.25833 20.6774C7.49345 20.9125 7.50103 21.3069 7.26592 21.542C7.14456 21.671 6.98529 21.7317 6.82602 21.7317C6.67433 21.7317 6.51505 21.671 6.40129 21.5572C5.57458 20.7533 4.17904 21.0491 4.09561 21.0718C0.508159 22.7556 0.652264 26.4568 0.796369 27.6172C1.05424 27.6627 1.38796 27.6248 1.82786 27.3366C2.11606 27.147 2.4877 27.2304 2.67732 27.5186C2.84417 27.7916 2.76833 28.1784 2.4877 28.3681C1.92645 28.7245 1.41829 28.861 0.978395 28.861C0.682601 28.861 0.417145 28.8004 0.189611 28.7018C0.0379222 29.1113 -0.0227534 29.5512 0.00758448 30.0215C0.197196 32.6002 3.32958 35.0803 3.83015 35.4595C5.01333 36.9157 7.02321 37.4011 8.45668 37.5604C8.28223 36.4758 8.60837 34.2991 11.134 33.6544C11.4525 33.571 11.7938 33.7682 11.8773 34.0943C11.9607 34.4205 11.7635 34.7542 11.4374 34.8376C9.40473 35.3609 9.63985 37.1812 9.67019 37.386C9.70053 37.5528 9.65502 37.7045 9.57159 37.8335C9.85222 41.4664 12.5523 42.7103 14.1829 43.135V40.6245C12.9694 40.3439 12.0745 39.2669 12.0745 37.97C12.0745 36.4758 13.288 35.2548 14.7973 35.2548C16.2914 35.2548 17.5125 36.4758 17.5125 37.9776C17.5125 39.2745 16.61 40.3515 15.404 40.6321V43.4687C16.8678 44.5154 18.6654 44.8643 20.6297 44.4547C20.7132 44.4395 20.7966 44.4319 20.88 44.4244V37.9776C20.88 37.6439 21.1531 37.3708 21.4944 37.3708H27.9184C28.199 36.0284 29.3974 35.0196 30.8233 35.0196C32.4615 35.0196 33.7964 36.3469 33.7964 37.9852C33.7964 39.6234 32.4615 40.9583 30.8233 40.9583C29.3898 40.9583 28.1914 39.9419 27.9108 38.5995H22.1087V44.5078C22.9885 44.7277 23.747 45.3042 24.1565 46.146C26.4925 50.9773 28.8285 56.6505 28.8513 56.7036C28.9347 56.9236 29.1471 57.0601 29.3746 57.0601C29.405 57.0601 29.4429 57.0601 29.4732 57.0525L33.8419 56.2637C34.0011 56.241 34.1377 56.1424 34.2211 56.0134C34.3045 55.8769 34.3349 55.71 34.2894 55.5584C33.4627 52.4791 32.4084 50.3478 31.6955 49.1419C34.7141 49.6956 37.179 49.3543 39.0448 48.1256C40.5617 47.132 41.3126 45.782 41.6842 44.8339C40.4859 44.303 39.0752 43.135 39.0752 41.0644C39.0752 40.7307 39.3558 40.4577 39.6895 40.4577C40.0308 40.4577 40.3038 40.7307 40.2963 41.072C40.2963 43.3701 42.7384 43.9314 42.8446 43.9541C42.8522 43.9541 42.8674 43.9617 42.875 43.9693C44.5587 43.5597 45.8481 42.7406 46.7127 41.5119C48.404 39.1152 47.9262 35.9753 47.7669 35.1486C48.4723 33.4572 48.0855 31.9555 47.7594 31.144ZM16.9361 21.9668V25.9562C16.9361 26.2899 16.6631 26.563 16.3293 26.563H13.8568V31.4625H17.2622C17.596 31.4625 17.8766 31.7356 17.869 32.0769C17.869 32.4182 17.5884 32.6836 17.2547 32.6836H13.2425C12.9088 32.6836 12.6357 32.4182 12.6357 32.0693V26.5554H10.641C10.4286 27.9888 9.19237 29.0962 7.69823 29.0962C6.05999 29.0962 4.72512 27.7613 4.72512 26.1231C4.72512 24.4848 6.05999 23.1499 7.69823 23.1499C9.05585 23.1499 10.2163 24.0753 10.5652 25.3343H15.715V21.9592C14.3726 21.671 13.3562 20.4878 13.3562 19.0543C13.3562 17.4161 14.6911 16.0812 16.3293 16.0812C17.9676 16.0812 19.3025 17.4161 19.3025 19.0543C19.2949 20.4954 18.2786 21.6861 16.9361 21.9668ZM31.2935 49.9686C31.1797 50.0672 31.0356 50.1127 30.8915 50.1127C30.7171 50.1127 30.5502 50.0445 30.4364 49.9079C30.353 49.8169 28.5403 47.7084 29.6325 45.6758C29.7918 45.3724 30.171 45.2662 30.4592 45.4255C30.7626 45.5848 30.8688 45.9564 30.7019 46.2522C30.0117 47.5416 31.339 49.0888 31.3466 49.104C31.5741 49.3543 31.5438 49.7487 31.2935 49.9686Z" fill="white"/>
</svg>
