<svg width="1021" height="339" viewBox="0 0 1021 339" fill="none" xmlns="http://www.w3.org/2000/svg">
<g opacity="0.1">
<path d="M419.078 313.576C420.225 313.576 421.304 314.021 422.118 314.829C422.936 315.642 423.389 316.724 423.393 317.876C423.397 319.028 422.953 320.115 422.14 320.933C420.462 322.621 417.725 322.631 416.037 320.955C415.219 320.142 414.766 319.06 414.761 317.908C414.757 316.755 415.201 315.669 416.014 314.851C416.827 314.033 417.909 313.58 419.062 313.576C419.068 313.576 419.073 313.576 419.078 313.576ZM419.078 320.845C419.838 320.845 420.598 320.554 421.174 319.974C421.731 319.413 422.035 318.67 422.032 317.882C422.029 317.093 421.719 316.352 421.159 315.796H421.158C420.005 314.649 418.13 314.654 416.981 315.811C415.833 316.967 415.839 318.841 416.997 319.989C417.572 320.56 418.325 320.845 419.078 320.845Z" fill="white"/>
<path d="M339.105 195.513C337.098 195.513 335.47 197.141 335.47 199.148C335.47 201.156 337.098 202.783 339.105 202.783C341.113 202.783 342.74 201.156 342.74 199.148C342.74 197.141 341.113 195.513 339.105 195.513Z" fill="white"/>
<g opacity="0.63">
<path d="M419.078 195.513C417.07 195.513 415.443 197.141 415.443 199.148C415.443 201.156 417.07 202.783 419.078 202.783C421.085 202.783 422.713 201.156 422.713 199.148C422.713 197.141 421.085 195.513 419.078 195.513Z" fill="white"/>
</g>
<g opacity="0.63">
<path d="M439.071 195.513C437.063 195.513 435.436 197.141 435.436 199.148C435.436 201.156 437.063 202.783 439.071 202.783C441.079 202.783 442.706 201.156 442.706 199.148C442.706 197.141 441.079 195.513 439.071 195.513Z" fill="white"/>
</g>
<path d="M259.132 212.302C257.125 212.302 255.497 213.929 255.497 215.937C255.497 217.945 257.125 219.572 259.132 219.572C261.14 219.572 262.767 217.945 262.767 215.937C262.767 213.929 261.14 212.302 259.132 212.302Z" fill="white"/>
<path d="M319.112 211.793C320.169 211.793 321.225 212.193 322.032 212.995C323.655 214.606 323.664 217.236 322.053 218.858C321.273 219.644 320.233 220.079 319.126 220.083C319.12 220.083 319.116 220.083 319.11 220.083C318.008 220.083 316.972 219.655 316.189 218.879C314.567 217.269 314.558 214.639 316.168 213.017C316.978 212.201 318.046 211.793 319.112 211.793ZM319.112 219.06C319.916 219.06 320.719 218.753 321.329 218.138C322.542 216.916 322.536 214.933 321.313 213.719C320.091 212.505 318.109 212.512 316.894 213.735C315.681 214.958 315.687 216.94 316.91 218.153C317.518 218.758 318.315 219.06 319.112 219.06Z" fill="white"/>
<path d="M339.105 212.302C337.098 212.302 335.47 213.929 335.47 215.937C335.47 217.945 337.098 219.572 339.105 219.572C341.113 219.572 342.74 217.945 342.74 215.937C342.74 213.929 341.113 212.302 339.105 212.302Z" fill="white"/>
<g opacity="0.63">
<path d="M399.084 212.302C397.077 212.302 395.449 213.929 395.449 215.937C395.449 217.945 397.077 219.572 399.084 219.572C401.092 219.572 402.719 217.945 402.719 215.937C402.719 213.929 401.092 212.302 399.084 212.302Z" fill="white"/>
</g>
<g opacity="0.63">
<path d="M419.078 212.302C417.07 212.302 415.443 213.929 415.443 215.937C415.443 217.945 417.07 219.572 419.078 219.572C421.085 219.572 422.713 217.945 422.713 215.937C422.713 213.929 421.085 212.302 419.078 212.302Z" fill="white"/>
</g>
<g opacity="0.63">
<path d="M439.071 212.302C437.063 212.302 435.436 213.929 435.436 215.937C435.436 217.945 437.063 219.572 439.071 219.572C441.079 219.572 442.706 217.945 442.706 215.937C442.706 213.929 441.079 212.302 439.071 212.302Z" fill="white"/>
</g>
<path d="M259.132 229.09C257.125 229.09 255.497 230.718 255.497 232.725C255.497 234.733 257.125 236.36 259.132 236.36C261.14 236.36 262.767 234.733 262.767 232.725C262.767 230.718 261.14 229.09 259.132 229.09Z" fill="white"/>
<path opacity="0.63" d="M299.118 228.409C300.265 228.409 301.345 228.853 302.159 229.662C302.977 230.475 303.43 231.556 303.435 232.709C303.439 233.862 302.994 234.947 302.182 235.766C301.369 236.584 300.287 237.037 299.134 237.041C298.003 237.089 296.895 236.6 296.077 235.788C295.259 234.976 294.806 233.893 294.803 232.741C294.8 231.589 295.243 230.503 296.056 229.684C296.869 228.866 297.951 228.413 299.103 228.41C299.107 228.409 299.113 228.409 299.118 228.409ZM299.118 235.677C299.878 235.677 300.639 235.386 301.215 234.805C301.772 234.245 302.076 233.503 302.073 232.714C302.069 231.925 301.76 231.184 301.2 230.629C300.643 230.075 299.903 229.771 299.118 229.771C299.114 229.771 299.111 229.771 299.107 229.771C298.318 229.774 297.578 230.084 297.022 230.644C296.465 231.204 296.161 231.947 296.164 232.736C296.167 233.525 296.477 234.266 297.036 234.821C297.611 235.392 298.365 235.677 299.118 235.677Z" fill="white"/>
<g opacity="0.63">
<path d="M319.112 228.581C320.168 228.581 321.225 228.981 322.032 229.783C323.655 231.393 323.664 234.023 322.053 235.645C320.442 237.269 317.811 237.276 316.19 235.666C314.568 234.056 314.558 231.426 316.169 229.803C316.978 228.989 318.045 228.581 319.112 228.581ZM319.111 235.849C319.115 235.849 319.118 235.849 319.123 235.849C319.957 235.846 320.741 235.518 321.329 234.926C322.543 233.703 322.536 231.721 321.313 230.508C320.091 229.294 318.108 229.3 316.894 230.523C315.681 231.747 315.687 233.729 316.91 234.942C317.5 235.527 318.281 235.849 319.111 235.849Z" fill="white"/>
</g>
<g opacity="0.63">
<path d="M339.105 229.09C337.098 229.09 335.47 230.718 335.47 232.725C335.47 234.733 337.098 236.36 339.105 236.36C341.113 236.36 342.74 234.733 342.74 232.725C342.74 230.718 341.113 229.09 339.105 229.09Z" fill="white"/>
</g>
<g opacity="0.63">
<path d="M399.085 228.581C400.141 228.581 401.198 228.981 402.005 229.783C403.628 231.393 403.637 234.023 402.027 235.645C400.416 237.269 397.785 237.276 396.164 235.666C394.542 234.056 394.532 231.426 396.143 229.803C396.951 228.989 398.017 228.581 399.085 228.581ZM399.084 235.849C399.088 235.849 399.092 235.849 399.096 235.849C399.931 235.846 400.714 235.518 401.302 234.926C402.516 233.703 402.509 231.721 401.286 230.508C400.063 229.294 398.08 229.3 396.867 230.523C395.653 231.747 395.66 233.729 396.883 234.942C397.473 235.527 398.254 235.849 399.084 235.849Z" fill="white"/>
</g>
<g opacity="0.63">
<path d="M419.078 229.09C417.07 229.09 415.443 230.718 415.443 232.725C415.443 234.733 417.07 236.36 419.078 236.36C421.085 236.36 422.713 234.733 422.713 232.725C422.713 230.718 421.085 229.09 419.078 229.09Z" fill="white"/>
</g>
<g opacity="0.63">
<path d="M439.071 229.09C437.063 229.09 435.436 230.718 435.436 232.725C435.436 234.733 437.063 236.36 439.071 236.36C441.079 236.36 442.706 234.733 442.706 232.725C442.706 230.718 441.079 229.09 439.071 229.09Z" fill="white"/>
</g>
<path d="M259.132 245.878C257.125 245.878 255.497 247.506 255.497 249.513C255.497 251.521 257.125 253.148 259.132 253.148C261.14 253.148 262.767 251.521 262.767 249.513C262.767 247.506 261.14 245.878 259.132 245.878Z" fill="white"/>
<path d="M279.125 245.878C277.118 245.878 275.49 247.506 275.49 249.513C275.49 251.521 277.118 253.148 279.125 253.148C281.133 253.148 282.76 251.521 282.76 249.513C282.76 247.506 281.133 245.878 279.125 245.878Z" fill="white"/>
<g opacity="0.63">
<path d="M299.118 245.878C297.11 245.878 295.483 247.506 295.483 249.513C295.483 251.521 297.11 253.148 299.118 253.148C301.125 253.148 302.753 251.521 302.753 249.513C302.753 247.506 301.125 245.878 299.118 245.878Z" fill="white"/>
</g>
<g opacity="0.63">
<path d="M319.112 245.369C320.168 245.369 321.225 245.769 322.032 246.571C323.655 248.181 323.664 250.812 322.053 252.434C320.444 254.057 317.813 254.066 316.19 252.455C314.568 250.844 314.559 248.214 316.169 246.592C316.978 245.777 318.045 245.369 319.112 245.369ZM321.313 247.296C320.091 246.083 318.107 246.09 316.894 247.312C315.681 248.535 315.687 250.517 316.91 251.731C318.134 252.945 320.116 252.937 321.329 251.715C322.542 250.492 322.536 248.509 321.313 247.296Z" fill="white"/>
</g>
<g opacity="0.63">
<path d="M339.104 245.199C340.204 245.199 341.304 245.615 342.145 246.449C342.963 247.261 343.416 248.344 343.42 249.496C343.424 250.649 342.979 251.734 342.167 252.553C340.491 254.241 337.752 254.252 336.064 252.575C335.246 251.762 334.793 250.68 334.789 249.528C334.785 248.375 335.229 247.29 336.042 246.471C336.884 245.623 337.995 245.199 339.104 245.199ZM341.186 247.416C340.029 246.268 338.155 246.276 337.008 247.431C336.451 247.992 336.147 248.735 336.15 249.523C336.153 250.312 336.463 251.053 337.023 251.609C338.179 252.756 340.053 252.752 341.201 251.593C342.349 250.439 342.342 248.565 341.186 247.416Z" fill="white"/>
</g>
<g opacity="0.63">
<path d="M379.091 245.369C380.148 245.369 381.205 245.769 382.012 246.571C383.634 248.181 383.644 250.812 382.033 252.434C380.424 254.057 377.793 254.066 376.171 252.455C374.549 250.844 374.539 248.214 376.15 246.592C376.958 245.777 378.024 245.369 379.091 245.369ZM381.292 247.296C380.069 246.082 378.086 246.088 376.874 247.312C375.66 248.535 375.667 250.517 376.89 251.731C378.113 252.944 380.095 252.937 381.309 251.715C381.897 251.123 382.219 250.337 382.216 249.503C382.213 248.667 381.885 247.884 381.292 247.296Z" fill="white"/>
</g>
<g opacity="0.63">
<path d="M399.085 245.369C400.141 245.369 401.198 245.769 402.005 246.571C403.628 248.181 403.637 250.812 402.027 252.434C400.417 254.057 397.786 254.066 396.164 252.455C394.542 250.844 394.533 248.214 396.143 246.592C396.951 245.777 398.017 245.369 399.085 245.369ZM401.286 247.296C400.064 246.083 398.081 246.09 396.867 247.312C395.654 248.535 395.66 250.517 396.883 251.731C398.107 252.945 400.09 252.937 401.302 251.715C402.515 250.492 402.509 248.509 401.286 247.296Z" fill="white"/>
</g>
<g opacity="0.63">
<path d="M419.078 245.878C417.07 245.878 415.443 247.506 415.443 249.513C415.443 251.521 417.07 253.148 419.078 253.148C421.085 253.148 422.713 251.521 422.713 249.513C422.713 247.506 421.085 245.878 419.078 245.878Z" fill="white"/>
</g>
<g opacity="0.63">
<path d="M439.071 245.199C440.171 245.199 441.271 245.615 442.111 246.449H442.112C443.8 248.125 443.81 250.864 442.133 252.553C440.456 254.241 437.718 254.252 436.029 252.575C434.34 250.898 434.331 248.16 436.007 246.471C436.85 245.624 437.96 245.199 439.071 245.199ZM441.153 247.416C439.995 246.268 438.121 246.275 436.975 247.432C435.828 248.587 435.834 250.462 436.99 251.61C438.146 252.758 440.021 252.75 441.168 251.594C442.314 250.439 442.308 248.564 441.153 247.416Z" fill="white"/>
</g>
<path d="M259.132 262.666C257.125 262.666 255.497 264.294 255.497 266.301C255.497 268.309 257.125 269.936 259.132 269.936C261.14 269.936 262.767 268.309 262.767 266.301C262.767 264.294 261.14 262.666 259.132 262.666Z" fill="white"/>
<path opacity="0.63" d="M279.125 262.157C280.182 262.157 281.239 262.557 282.045 263.359C283.668 264.97 283.677 267.6 282.066 269.222C281.286 270.008 280.246 270.442 279.139 270.447C279.133 270.447 279.129 270.447 279.123 270.447C278.021 270.447 276.985 270.019 276.202 269.243C275.417 268.463 274.981 267.423 274.977 266.317C274.972 265.209 275.4 264.167 276.18 263.381C276.992 262.566 278.059 262.157 279.125 262.157ZM279.125 269.425C279.929 269.425 280.733 269.118 281.342 268.503C282.555 267.281 282.549 265.298 281.326 264.084C280.737 263.499 279.955 263.177 279.125 263.177C279.121 263.177 279.118 263.177 279.114 263.177C278.279 263.18 277.496 263.508 276.908 264.1C276.319 264.692 275.997 265.478 276 266.312C276.003 267.146 276.331 267.93 276.923 268.518C277.532 269.122 278.329 269.425 279.125 269.425Z" fill="white"/>
<g opacity="0.63">
<path d="M299.118 262.666C297.11 262.666 295.483 264.294 295.483 266.301C295.483 268.309 297.11 269.936 299.118 269.936C301.125 269.936 302.753 268.309 302.753 266.301C302.753 264.294 301.125 262.666 299.118 262.666Z" fill="white"/>
</g>
<g opacity="0.63">
<path d="M319.112 262.157C320.169 262.157 321.225 262.557 322.032 263.359C323.655 264.97 323.664 267.6 322.053 269.222C321.273 270.008 320.233 270.442 319.126 270.447C319.12 270.447 319.116 270.447 319.11 270.447C318.008 270.447 316.972 270.019 316.189 269.243C314.567 267.633 314.558 265.003 316.168 263.381C316.978 262.566 318.046 262.157 319.112 262.157ZM319.112 269.425C319.916 269.425 320.719 269.118 321.329 268.503C322.542 267.281 322.536 265.298 321.313 264.084C320.091 262.87 318.109 262.877 316.894 264.1C315.681 265.323 315.687 267.305 316.91 268.518C317.518 269.122 318.315 269.425 319.112 269.425Z" fill="white"/>
</g>
<g opacity="0.63">
<path d="M339.105 262.666C337.098 262.666 335.47 264.294 335.47 266.301C335.47 268.309 337.098 269.936 339.105 269.936C341.113 269.936 342.74 268.309 342.74 266.301C342.74 264.294 341.113 262.666 339.105 262.666Z" fill="white"/>
</g>
<g opacity="0.63">
<path d="M359.098 262.666C357.09 262.666 355.463 264.294 355.463 266.301C355.463 268.309 357.09 269.936 359.098 269.936C361.105 269.936 362.733 268.309 362.733 266.301C362.733 264.294 361.105 262.666 359.098 262.666Z" fill="white"/>
</g>
<g opacity="0.63">
<path d="M379.092 262.155C380.194 262.155 381.23 262.582 382.012 263.359C383.634 264.97 383.644 267.6 382.033 269.222C381.253 270.008 380.214 270.442 379.106 270.447C379.101 270.447 379.096 270.447 379.09 270.447C377.989 270.447 376.952 270.019 376.17 269.243C375.384 268.463 374.948 267.423 374.944 266.317C374.94 265.209 375.368 264.167 376.148 263.381C376.928 262.595 377.968 262.16 379.075 262.156C379.081 262.155 379.087 262.155 379.092 262.155ZM379.092 269.425C379.095 269.425 379.099 269.425 379.103 269.425C379.938 269.423 380.721 269.095 381.309 268.502C381.897 267.91 382.219 267.124 382.216 266.29C382.213 265.455 381.885 264.672 381.293 264.083C380.704 263.498 379.922 263.176 379.092 263.176C379.088 263.176 379.084 263.176 379.08 263.176C378.246 263.179 377.462 263.507 376.874 264.099C376.286 264.691 375.964 265.477 375.967 266.311C375.97 267.145 376.298 267.929 376.89 268.517C377.48 269.104 378.262 269.425 379.092 269.425Z" fill="white"/>
</g>
<g opacity="0.63">
<path d="M399.084 262.666C397.077 262.666 395.449 264.294 395.449 266.301C395.449 268.309 397.077 269.936 399.084 269.936C401.092 269.936 402.719 268.309 402.719 266.301C402.719 264.294 401.092 262.666 399.084 262.666Z" fill="white"/>
</g>
<path d="M259.132 279.455C257.125 279.455 255.497 281.083 255.497 283.09C255.497 285.098 257.125 286.725 259.132 286.725C261.14 286.725 262.767 285.098 262.767 283.09C262.767 281.083 261.14 279.455 259.132 279.455Z" fill="white"/>
<path d="M279.125 279.455C277.118 279.455 275.49 281.083 275.49 283.09C275.49 285.098 277.118 286.725 279.125 286.725C281.133 286.725 282.76 285.098 282.76 283.09C282.76 281.083 281.133 279.455 279.125 279.455Z" fill="white"/>
<path d="M299.118 279.455C297.11 279.455 295.483 281.083 295.483 283.09C295.483 285.098 297.11 286.725 299.118 286.725C301.125 286.725 302.753 285.098 302.753 283.09C302.753 281.083 301.125 279.455 299.118 279.455Z" fill="white"/>
<path opacity="0.2" d="M379.092 5.24521e-05C380.239 5.24521e-05 381.318 0.444042 382.132 1.25304C382.95 2.06604 383.403 3.14702 383.407 4.30102C383.411 5.45302 382.966 6.53902 382.154 7.35802C381.341 8.17602 380.259 8.62901 379.107 8.63201C377.93 8.68201 376.868 8.19102 376.05 7.37902C375.232 6.56602 374.78 5.48402 374.775 4.33202C374.771 3.17902 375.215 2.09302 376.028 1.27502C376.841 0.457015 377.922 0.00405216 379.075 5.24521e-05C379.08 5.24521e-05 379.087 5.24521e-05 379.092 5.24521e-05ZM379.091 7.27001C379.095 7.27001 379.099 7.27001 379.102 7.27001C379.891 7.26701 380.632 6.95702 381.187 6.39702C381.744 5.83702 382.048 5.09404 382.045 4.30504C382.042 3.51604 381.732 2.77502 381.172 2.22002H381.171C380.614 1.66602 379.876 1.36205 379.09 1.36205C379.087 1.36205 379.083 1.36205 379.08 1.36205C378.291 1.36505 377.55 1.67504 376.995 2.23504C376.438 2.79604 376.134 3.53802 376.137 4.32702C376.141 5.11702 376.45 5.85702 377.01 6.41302C377.567 6.96602 378.306 7.27001 379.091 7.27001Z" fill="white"/>
<path d="M359.098 17.4691C357.09 17.4691 355.463 19.0965 355.463 21.1041C355.463 23.1116 357.09 24.739 359.098 24.739C361.105 24.739 362.733 23.1116 362.733 21.1041C362.733 19.0965 361.105 17.4691 359.098 17.4691Z" fill="white"/>
<path d="M379.091 17.4691C377.084 17.4691 375.456 19.0965 375.456 21.1041C375.456 23.1116 377.084 24.739 379.091 24.739C381.099 24.739 382.726 23.1116 382.726 21.1041C382.726 19.0965 381.099 17.4691 379.091 17.4691Z" fill="white"/>
<path d="M359.099 33.749C360.155 33.749 361.212 34.149 362.019 34.95C363.641 36.561 363.65 39.191 362.04 40.813C360.431 42.435 357.8 42.445 356.177 40.834C354.554 39.223 354.546 36.593 356.156 34.971C356.965 34.156 358.031 33.749 359.099 33.749ZM361.3 35.675C360.078 34.463 358.095 34.469 356.881 35.691C355.667 36.914 355.674 38.896 356.897 40.11C358.121 41.324 360.103 41.316 361.316 40.094C362.529 38.871 362.522 36.888 361.3 35.675Z" fill="white"/>
<path d="M379.091 34.2571C377.084 34.2571 375.456 35.8845 375.456 37.8921C375.456 39.8996 377.084 41.5271 379.091 41.5271C381.099 41.5271 382.726 39.8996 382.726 37.8921C382.726 35.8845 381.099 34.2571 379.091 34.2571Z" fill="white"/>
<path d="M359.098 51.0452C357.09 51.0452 355.463 52.6727 355.463 54.6802C355.463 56.6878 357.09 58.3152 359.098 58.3152C361.105 58.3152 362.733 56.6878 362.733 54.6802C362.733 52.6727 361.105 51.0452 359.098 51.0452Z" fill="white"/>
<path d="M379.091 51.0452C377.084 51.0452 375.456 52.6727 375.456 54.6802C375.456 56.6878 377.084 58.3152 379.091 58.3152C381.099 58.3152 382.726 56.6878 382.726 54.6802C382.726 52.6727 381.099 51.0452 379.091 51.0452Z" fill="white"/>
<path opacity="0.63" d="M319.112 278.944C320.214 278.944 321.25 279.372 322.032 280.148C323.655 281.758 323.664 284.388 322.053 286.01C320.442 287.634 317.811 287.642 316.19 286.031C314.568 284.42 314.559 281.79 316.169 280.168C316.949 279.382 317.989 278.947 319.096 278.943C319.102 278.944 319.106 278.944 319.112 278.944ZM319.111 286.214C319.115 286.214 319.118 286.214 319.123 286.214C319.957 286.211 320.741 285.883 321.329 285.291C322.543 284.068 322.536 282.086 321.313 280.873C320.091 279.659 318.108 279.665 316.894 280.889C315.681 282.111 315.687 284.094 316.91 285.307C317.5 285.892 318.281 286.214 319.111 286.214Z" fill="white"/>
<path d="M339.105 279.455C337.098 279.455 335.47 281.083 335.47 283.09C335.47 285.098 337.098 286.725 339.105 286.725C341.113 286.725 342.74 285.098 342.74 283.09C342.74 281.083 341.113 279.455 339.105 279.455Z" fill="white"/>
<path d="M259.132 296.243C257.125 296.243 255.497 297.87 255.497 299.878C255.497 301.885 257.125 303.513 259.132 303.513C261.14 303.513 262.767 301.885 262.767 299.878C262.767 297.87 261.14 296.243 259.132 296.243Z" fill="white"/>
<path d="M279.125 295.734C280.181 295.734 281.239 296.134 282.045 296.935C283.668 298.546 283.677 301.176 282.066 302.798C280.457 304.42 277.826 304.43 276.203 302.819C274.581 301.208 274.571 298.578 276.182 296.956C276.992 296.142 278.058 295.734 279.125 295.734ZM281.327 297.66C280.105 296.447 278.122 296.454 276.909 297.676C275.695 298.899 275.702 300.881 276.925 302.095C278.148 303.308 280.132 303.301 281.344 302.079C282.556 300.857 282.549 298.874 281.327 297.66Z" fill="white"/>
<path d="M299.118 296.243C297.11 296.243 295.483 297.87 295.483 299.878C295.483 301.885 297.11 303.513 299.118 303.513C301.125 303.513 302.753 301.885 302.753 299.878C302.753 297.87 301.125 296.243 299.118 296.243Z" fill="white"/>
<path d="M319.112 296.243C317.105 296.243 315.477 297.87 315.477 299.878C315.477 301.885 317.105 303.513 319.112 303.513C321.12 303.513 322.747 301.885 322.747 299.878C322.747 297.87 321.12 296.243 319.112 296.243Z" fill="white"/>
<path d="M259.133 313.576C260.279 313.576 261.359 314.021 262.173 314.829C262.991 315.642 263.444 316.724 263.448 317.876C263.452 319.029 263.007 320.115 262.195 320.933C260.518 322.62 257.779 322.631 256.091 320.955C254.403 319.278 254.393 316.539 256.07 314.851C256.883 314.033 257.964 313.58 259.117 313.576C259.121 313.576 259.128 313.576 259.133 313.576ZM259.132 320.845C259.892 320.845 260.652 320.554 261.228 319.973C262.376 318.817 262.37 316.943 261.213 315.795C260.654 315.238 259.934 314.902 259.122 314.937C258.332 314.94 257.592 315.25 257.037 315.81C255.889 316.966 255.895 318.84 257.052 319.989C257.625 320.56 258.379 320.845 259.132 320.845Z" fill="white"/>
<path d="M279.125 313.748C280.182 313.748 281.239 314.148 282.045 314.95C283.668 316.561 283.677 319.191 282.066 320.813C280.457 322.436 277.826 322.445 276.203 320.834C274.581 319.223 274.571 316.593 276.182 314.971C276.992 314.156 278.059 313.748 279.125 313.748ZM279.125 321.015C279.93 321.015 280.733 320.708 281.343 320.094C282.556 318.871 282.55 316.889 281.327 315.675C280.738 315.09 279.956 314.768 279.126 314.768C279.122 314.768 279.119 314.768 279.115 314.768C278.28 314.771 277.497 315.099 276.909 315.691C275.695 316.914 275.702 318.896 276.925 320.11C277.532 320.713 278.329 321.015 279.125 321.015Z" fill="white"/>
<path d="M299.119 313.576C300.265 313.576 301.345 314.021 302.159 314.829C302.977 315.642 303.43 316.724 303.434 317.876C303.438 319.029 302.993 320.115 302.181 320.933C300.503 322.62 297.765 322.631 296.077 320.955C295.259 320.142 294.806 319.06 294.802 317.908C294.798 316.755 295.242 315.669 296.055 314.851C296.868 314.033 297.949 313.58 299.102 313.576C299.107 313.576 299.114 313.576 299.119 313.576ZM299.118 320.845C299.878 320.845 300.639 320.554 301.215 319.973C302.363 318.817 302.356 316.943 301.199 315.795C300.642 315.241 299.903 314.937 299.118 314.937C299.115 314.937 299.111 314.937 299.107 314.937C298.318 314.94 297.578 315.25 297.022 315.81C295.874 316.966 295.88 318.841 297.037 319.988C297.612 320.56 298.365 320.845 299.118 320.845Z" fill="white"/>
<path d="M319.112 313.748C320.169 313.748 321.225 314.148 322.032 314.95C323.655 316.561 323.664 319.191 322.053 320.813C320.444 322.436 317.813 322.445 316.19 320.834C314.568 319.223 314.559 316.593 316.169 314.971C316.978 314.156 318.046 313.748 319.112 313.748ZM319.111 321.015C319.916 321.015 320.719 320.708 321.329 320.094C322.542 318.871 322.536 316.889 321.313 315.675C320.091 314.461 318.109 314.468 316.894 315.691C315.681 316.914 315.687 318.896 316.91 320.11C317.518 320.713 318.315 321.015 319.111 321.015Z" fill="white"/>
<path d="M339.105 314.257C337.098 314.257 335.47 315.885 335.47 317.892C335.47 319.9 337.098 321.527 339.105 321.527C341.113 321.527 342.74 319.9 342.74 317.892C342.74 315.885 341.113 314.257 339.105 314.257Z" fill="white"/>
<path d="M259.133 330.364C260.279 330.364 261.359 330.808 262.173 331.617C262.991 332.43 263.444 333.511 263.449 334.664C263.453 335.817 263.008 336.902 262.196 337.721C261.383 338.539 260.301 338.992 259.149 338.996C257.968 339.051 256.911 338.555 256.092 337.743C255.273 336.931 254.821 335.848 254.817 334.696C254.813 333.543 255.259 332.458 256.07 331.639C256.883 330.821 257.964 330.368 259.117 330.364C259.121 330.364 259.128 330.364 259.133 330.364ZM259.132 337.634C259.892 337.634 260.652 337.342 261.228 336.761C261.785 336.201 262.089 335.459 262.086 334.67C262.083 333.881 261.773 333.14 261.213 332.585C260.654 332.029 259.933 331.776 259.121 331.727C258.331 331.73 257.591 332.04 257.036 332.6C256.479 333.16 256.175 333.903 256.178 334.692C256.181 335.482 256.491 336.222 257.051 336.778C257.625 337.347 258.379 337.634 259.132 337.634Z" fill="white"/>
<path d="M279.125 330.536C280.182 330.536 281.239 330.936 282.045 331.738C283.668 333.348 283.677 335.977 282.066 337.6C280.455 339.223 277.825 339.232 276.203 337.621C275.418 336.841 274.982 335.801 274.978 334.694C274.973 333.587 275.401 332.544 276.181 331.758C276.992 330.945 278.059 330.536 279.125 330.536ZM279.125 337.803C279.929 337.803 280.733 337.496 281.343 336.882C282.557 335.659 282.55 333.677 281.327 332.464C280.738 331.879 279.956 331.556 279.126 331.556C279.122 331.556 279.119 331.556 279.115 331.556C278.28 331.559 277.497 331.887 276.909 332.48C276.32 333.072 275.998 333.858 276.001 334.692C276.004 335.526 276.332 336.31 276.924 336.898C277.532 337.502 278.328 337.803 279.125 337.803Z" fill="white"/>
<g opacity="0.63">
<path d="M379.091 228.961C380.148 228.961 381.205 229.361 382.012 230.163C383.634 231.774 383.644 234.404 382.033 236.026C381.253 236.812 380.214 237.247 379.106 237.251C379.101 237.251 379.095 237.251 379.09 237.251C377.988 237.251 376.952 236.824 376.17 236.047C374.548 234.437 374.538 231.806 376.149 230.184C376.958 229.369 378.024 228.961 379.091 228.961ZM381.292 230.887C380.069 229.673 378.086 229.679 376.874 230.903C376.286 231.496 375.964 232.281 375.967 233.116C375.97 233.951 376.298 234.734 376.89 235.322C377.48 235.907 378.261 236.23 379.091 236.23C379.095 236.23 379.099 236.23 379.103 236.23C379.937 236.227 380.721 235.899 381.309 235.307C382.522 234.084 382.515 232.101 381.292 230.887Z" fill="white"/>
</g>
<path d="M379.091 124.136C377.084 124.136 375.456 125.763 375.456 127.771C375.456 129.779 377.084 131.406 379.091 131.406C381.099 131.406 382.726 129.779 382.726 127.771C382.726 125.763 381.099 124.136 379.091 124.136Z" fill="white"/>
<path d="M379.092 140.413C380.194 140.413 381.23 140.84 382.012 141.617C383.634 143.228 383.644 145.858 382.033 147.48C381.253 148.266 380.214 148.7 379.106 148.705C379.101 148.705 379.096 148.705 379.09 148.705C377.989 148.705 376.952 148.277 376.17 147.501C375.384 146.721 374.948 145.681 374.944 144.574C374.94 143.467 375.368 142.424 376.148 141.638C376.928 140.852 377.968 140.417 379.075 140.413C379.081 140.413 379.087 140.413 379.092 140.413ZM379.092 147.683C379.095 147.683 379.099 147.683 379.103 147.683C379.938 147.681 380.721 147.353 381.309 146.76C381.897 146.168 382.219 145.382 382.216 144.548C382.213 143.713 381.885 142.93 381.293 142.341C380.704 141.756 379.922 141.434 379.092 141.434C379.088 141.434 379.084 141.434 379.08 141.434C378.246 141.437 377.462 141.765 376.874 142.357C376.286 142.949 375.964 143.735 375.967 144.569C375.97 145.403 376.298 146.187 376.89 146.775C377.48 147.362 378.262 147.683 379.092 147.683Z" fill="white"/>
<path d="M379.091 157.712C377.084 157.712 375.456 159.34 375.456 161.347C375.456 163.355 377.084 164.982 379.091 164.982C381.099 164.982 382.726 163.355 382.726 161.347C382.726 159.34 381.099 157.712 379.091 157.712Z" fill="white"/>
<path opacity="0.2" d="M379.091 173.992C380.148 173.992 381.205 174.392 382.012 175.193C383.634 176.804 383.644 179.434 382.033 181.056C380.424 182.678 377.793 182.688 376.171 181.077C374.549 179.466 374.539 176.836 376.15 175.214C376.958 174.4 378.024 173.992 379.091 173.992ZM381.292 175.918C380.069 174.704 378.086 174.711 376.874 175.934C376.286 176.526 375.964 177.312 375.967 178.147C375.97 178.982 376.298 179.765 376.89 180.354C378.113 181.566 380.095 181.56 381.309 180.337C382.523 179.114 382.515 177.132 381.292 175.918Z" fill="white"/>
<path opacity="0.2" d="M379.091 192.007C380.148 192.007 381.205 192.407 382.012 193.208C383.634 194.819 383.644 197.449 382.033 199.071C381.253 199.857 380.214 200.292 379.106 200.296C379.101 200.296 379.096 200.296 379.09 200.296C377.989 200.296 376.952 199.869 376.17 199.092C375.384 198.312 374.948 197.272 374.944 196.165C374.94 195.058 375.368 194.015 376.148 193.229C376.958 192.414 378.024 192.007 379.091 192.007ZM381.292 193.932C380.069 192.718 378.086 192.725 376.874 193.948C376.286 194.54 375.964 195.326 375.967 196.16C375.97 196.994 376.298 197.778 376.89 198.366C377.482 198.955 378.267 199.303 379.103 199.274C379.938 199.272 380.721 198.943 381.309 198.351C381.897 197.759 382.219 196.973 382.216 196.139C382.213 195.304 381.885 194.521 381.292 193.932Z" fill="white"/>
<path d="M379.091 208.792C380.193 208.792 381.23 209.219 382.012 209.996C383.634 211.607 383.643 214.237 382.033 215.859C381.253 216.645 380.214 217.08 379.106 217.084C379.101 217.084 379.096 217.084 379.09 217.084C377.989 217.084 376.952 216.656 376.17 215.88C375.384 215.1 374.948 214.061 374.944 212.954C374.94 211.847 375.368 210.803 376.148 210.017C376.928 209.231 377.968 208.796 379.075 208.792C379.081 208.792 379.087 208.792 379.091 208.792ZM379.092 216.063C379.095 216.063 379.099 216.063 379.103 216.063C379.938 216.06 380.721 215.732 381.309 215.14C382.522 213.917 382.516 211.935 381.293 210.721C380.704 210.136 379.922 209.813 379.091 209.813C379.087 209.813 379.084 209.813 379.08 209.813C378.246 209.816 377.462 210.144 376.874 210.736C376.286 211.329 375.964 212.115 375.967 212.949C375.97 213.783 376.298 214.567 376.89 215.155C377.48 215.741 378.262 216.063 379.092 216.063Z" fill="white"/>
<path d="M299.118 331.045C297.11 331.045 295.483 332.673 295.483 334.68C295.483 336.688 297.11 338.315 299.118 338.315C301.125 338.315 302.753 336.688 302.753 334.68C302.753 332.673 301.125 331.045 299.118 331.045Z" fill="white"/>
<path d="M319.112 330.536C320.169 330.536 321.225 330.936 322.032 331.738C323.655 333.348 323.664 335.977 322.053 337.6C320.442 339.223 317.811 339.232 316.19 337.621C314.568 336.011 314.559 333.381 316.169 331.758C316.978 330.945 318.046 330.536 319.112 330.536ZM319.111 337.805C319.115 337.805 319.118 337.805 319.123 337.805C319.957 337.802 320.741 337.474 321.329 336.882C322.543 335.659 322.536 333.677 321.313 332.464C320.091 331.249 318.109 331.257 316.894 332.48C315.681 333.703 315.687 335.685 316.91 336.898C317.5 337.482 318.281 337.805 319.111 337.805Z" fill="white"/>
<path d="M339.105 331.045C337.098 331.045 335.47 332.673 335.47 334.68C335.47 336.688 337.098 338.315 339.105 338.315C341.113 338.315 342.74 336.688 342.74 334.68C342.74 332.673 341.113 331.045 339.105 331.045Z" fill="white"/>
<path d="M339.105 180.931C337.098 180.931 335.47 182.559 335.47 184.566C335.47 186.574 337.098 188.201 339.105 188.201C341.113 188.201 342.74 186.574 342.74 184.566C342.74 182.559 341.113 180.931 339.105 180.931Z" fill="white"/>
<path d="M379.091 87.1541C377.084 87.1541 375.456 88.7815 375.456 90.7891C375.456 92.7966 377.084 94.4241 379.091 94.4241C381.099 94.4241 382.726 92.7966 382.726 90.7891C382.726 88.7815 381.099 87.1541 379.091 87.1541Z" fill="white"/>
<path d="M379.091 103.942C377.084 103.942 375.456 105.57 375.456 107.577C375.456 109.585 377.084 111.212 379.091 111.212C381.099 111.212 382.726 109.585 382.726 107.577C382.726 105.57 381.099 103.942 379.091 103.942Z" fill="white"/>
<path d="M379.091 72.5721C377.084 72.5721 375.456 74.1995 375.456 76.207C375.456 78.2146 377.084 79.842 379.091 79.842C381.099 79.842 382.726 78.2146 382.726 76.207C382.726 74.1995 381.099 72.5721 379.091 72.5721Z" fill="white"/>
<path opacity="0.5" d="M359.098 331.045C357.09 331.045 355.463 332.673 355.463 334.68C355.463 336.688 357.09 338.315 359.098 338.315C361.105 338.315 362.733 336.688 362.733 334.68C362.733 332.673 361.105 331.045 359.098 331.045Z" fill="white"/>
<path opacity="0.5" d="M379.092 330.534C380.194 330.534 381.23 330.962 382.012 331.738C382.798 332.518 383.233 333.557 383.238 334.664C383.242 335.772 382.814 336.814 382.034 337.6C381.254 338.386 380.215 338.821 379.107 338.825C379.102 338.825 379.096 338.825 379.091 338.825C377.989 338.825 376.953 338.398 376.171 337.621C375.385 336.841 374.949 335.801 374.945 334.694C374.941 333.587 375.369 332.544 376.149 331.758C376.929 330.972 377.969 330.537 379.076 330.533C379.081 330.534 379.087 330.534 379.092 330.534ZM379.091 337.805C379.095 337.805 379.099 337.805 379.103 337.805C379.937 337.802 380.721 337.474 381.309 336.882C381.897 336.289 382.219 335.504 382.216 334.669C382.213 333.835 381.885 333.051 381.293 332.463C380.704 331.878 379.922 331.555 379.092 331.555C379.088 331.555 379.084 331.555 379.08 331.555C378.246 331.558 377.462 331.886 376.874 332.479C376.286 333.071 375.964 333.857 375.967 334.691C375.97 335.525 376.298 336.309 376.89 336.897C377.48 337.482 378.261 337.805 379.091 337.805Z" fill="white"/>
<path d="M399.084 331.045C397.077 331.045 395.449 332.673 395.449 334.68C395.449 336.688 397.077 338.315 399.084 338.315C401.092 338.315 402.719 336.688 402.719 334.68C402.719 332.673 401.092 331.045 399.084 331.045Z" fill="white"/>
<path d="M399.084 314.257C397.077 314.257 395.449 315.885 395.449 317.892C395.449 319.9 397.077 321.527 399.084 321.527C401.092 321.527 402.719 319.9 402.719 317.892C402.719 315.885 401.092 314.257 399.084 314.257Z" fill="white"/>
<path d="M419.078 331.045C417.07 331.045 415.443 332.673 415.443 334.68C415.443 336.688 417.07 338.315 419.078 338.315C421.085 338.315 422.713 336.688 422.713 334.68C422.713 332.673 421.085 331.045 419.078 331.045Z" fill="white"/>
<path d="M419.078 296.243C417.07 296.243 415.443 297.87 415.443 299.878C415.443 301.885 417.07 303.513 419.078 303.513C421.085 303.513 422.713 301.885 422.713 299.878C422.713 297.87 421.085 296.243 419.078 296.243Z" fill="white"/>
<path d="M439.071 331.045C437.063 331.045 435.436 332.673 435.436 334.68C435.436 336.688 437.063 338.315 439.071 338.315C441.079 338.315 442.706 336.688 442.706 334.68C442.706 332.673 441.079 331.045 439.071 331.045Z" fill="white"/>
<path d="M439.071 314.257C437.063 314.257 435.436 315.885 435.436 317.892C435.436 319.9 437.063 321.527 439.071 321.527C441.079 321.527 442.706 319.9 442.706 317.892C442.706 315.885 441.079 314.257 439.071 314.257Z" fill="white"/>
<path d="M219.003 59.9344C216.996 59.9344 215.368 61.5618 215.368 63.5693C215.368 65.5769 216.996 67.2043 219.003 67.2043C221.011 67.2043 222.638 65.5769 222.638 63.5693C222.638 61.5618 221.011 59.9344 219.003 59.9344Z" fill="white"/>
<path d="M219.003 76.7224C216.996 76.7224 215.368 78.3499 215.368 80.3575C215.368 82.365 216.996 83.9924 219.003 83.9924C221.011 83.9924 222.638 82.365 222.638 80.3575C222.638 78.3499 221.011 76.7224 219.003 76.7224Z" fill="white"/>
<path d="M219.003 93.51C216.996 93.51 215.368 95.1375 215.368 97.1451C215.368 99.1526 216.996 100.78 219.003 100.78C221.011 100.78 222.638 99.1526 222.638 97.1451C222.638 95.1375 221.011 93.51 219.003 93.51Z" fill="white"/>
<path d="M219.003 127.087C216.996 127.087 215.368 128.715 215.368 130.722C215.368 132.73 216.996 134.357 219.003 134.357C221.011 134.357 222.638 132.73 222.638 130.722C222.638 128.715 221.011 127.087 219.003 127.087Z" fill="white"/>
<path d="M219.003 143.875C216.996 143.875 215.368 145.503 215.368 147.51C215.368 149.518 216.996 151.145 219.003 151.145C221.011 151.145 222.638 149.518 222.638 147.51C222.638 145.503 221.011 143.875 219.003 143.875Z" fill="white"/>
<path d="M219.003 161.21C220.103 161.21 221.204 161.627 222.045 162.461C223.734 164.137 223.744 166.875 222.066 168.564C220.39 170.251 217.651 170.263 215.962 168.586C214.274 166.909 214.264 164.171 215.94 162.482C216.783 161.635 217.893 161.21 219.003 161.21ZM219.003 168.477C219.763 168.477 220.523 168.186 221.1 167.605C222.247 166.449 222.241 164.575 221.085 163.428C219.93 162.28 218.055 162.286 216.906 163.443C215.759 164.599 215.765 166.473 216.922 167.621C217.497 168.192 218.251 168.477 219.003 168.477Z" fill="white"/>
<path d="M219.003 178.677C216.996 178.677 215.368 180.304 215.368 182.312C215.368 184.32 216.996 185.947 219.003 185.947C221.011 185.947 222.638 184.32 222.638 182.312C222.638 180.304 221.011 178.677 219.003 178.677Z" fill="white"/>
<path opacity="0.2" d="M59.0581 194.833C60.2041 194.833 61.2841 195.277 62.0991 196.086C62.9161 196.899 63.37 197.98 63.373 199.133C63.376 200.286 62.9321 201.371 62.1201 202.19C60.4441 203.878 57.7051 203.888 56.0171 202.212C55.1991 201.4 54.746 200.317 54.7421 199.165C54.7381 198.013 55.1821 196.927 55.9951 196.108C56.8081 195.29 57.8901 194.837 59.0421 194.834C59.0481 194.833 59.0531 194.833 59.0581 194.833ZM59.0581 202.101C59.8181 202.101 60.5781 201.81 61.1551 201.23C61.7111 200.669 62.015 199.926 62.013 199.138C62.01 198.348 61.7001 197.608 61.1401 197.053C59.9851 195.906 58.1111 195.91 56.9631 197.068C55.8151 198.223 55.8211 200.097 56.9781 201.246C57.5521 201.816 58.3051 202.101 59.0581 202.101Z" fill="white"/>
<path opacity="0.2" d="M59.0579 177.296C57.0503 177.296 55.4229 178.924 55.4229 180.931C55.4229 182.939 57.0503 184.566 59.0579 184.566C61.0654 184.566 62.6929 182.939 62.6929 180.931C62.6929 178.924 61.0654 177.296 59.0579 177.296Z" fill="white"/>
<path opacity="0.3" d="M99.0442 195.513C97.0366 195.513 95.4092 197.141 95.4092 199.148C95.4092 201.156 97.0366 202.783 99.0442 202.783C101.052 202.783 102.679 201.156 102.679 199.148C102.679 197.141 101.052 195.513 99.0442 195.513Z" fill="white"/>
<g opacity="0.5">
<path d="M139.031 195.513C137.024 195.513 135.396 197.141 135.396 199.148C135.396 201.156 137.024 202.783 139.031 202.783C141.039 202.783 142.666 201.156 142.666 199.148C142.666 197.141 141.039 195.513 139.031 195.513Z" fill="white"/>
</g>
<path d="M219.003 195.513C216.996 195.513 215.368 197.141 215.368 199.148C215.368 201.156 216.996 202.783 219.003 202.783C221.011 202.783 222.638 201.156 222.638 199.148C222.638 197.141 221.011 195.513 219.003 195.513Z" fill="white"/>
<path opacity="0.3" d="M59.0579 212.302C57.0503 212.302 55.4229 213.929 55.4229 215.937C55.4229 217.945 57.0503 219.572 59.0579 219.572C61.0654 219.572 62.6929 217.945 62.6929 215.937C62.6929 213.929 61.0654 212.302 59.0579 212.302Z" fill="white"/>
<path d="M99.0442 212.302C97.0366 212.302 95.4092 213.929 95.4092 215.937C95.4092 217.945 97.0366 219.572 99.0442 219.572C101.052 219.572 102.679 217.945 102.679 215.937C102.679 213.929 101.052 212.302 99.0442 212.302Z" fill="white"/>
<g opacity="0.5">
<path d="M139.031 212.302C137.024 212.302 135.396 213.929 135.396 215.937C135.396 217.945 137.024 219.572 139.031 219.572C141.039 219.572 142.666 217.945 142.666 215.937C142.666 213.929 141.039 212.302 139.031 212.302Z" fill="white"/>
</g>
<path opacity="0.5" d="M159.024 212.302C157.017 212.302 155.389 213.929 155.389 215.937C155.389 217.945 157.017 219.572 159.024 219.572C161.032 219.572 162.659 217.945 162.659 215.937C162.659 213.929 161.032 212.302 159.024 212.302Z" fill="white"/>
<path d="M179.017 212.302C177.009 212.302 175.382 213.929 175.382 215.937C175.382 217.945 177.009 219.572 179.017 219.572C181.024 219.572 182.652 217.945 182.652 215.937C182.652 213.929 181.024 212.302 179.017 212.302Z" fill="white"/>
<path d="M219.003 212.302C216.996 212.302 215.368 213.929 215.368 215.937C215.368 217.945 216.996 219.572 219.003 219.572C221.011 219.572 222.638 217.945 222.638 215.937C222.638 213.929 221.011 212.302 219.003 212.302Z" fill="white"/>
<path opacity="0.3" d="M59.0579 229.09C57.0503 229.09 55.4229 230.718 55.4229 232.725C55.4229 234.733 57.0503 236.36 59.0579 236.36C61.0654 236.36 62.6929 234.733 62.6929 232.725C62.6929 230.718 61.0654 229.09 59.0579 229.09Z" fill="white"/>
<path d="M41.4099 228.411C42.5109 228.411 43.6098 228.828 44.4508 229.662C46.1398 231.338 46.1499 234.077 44.4729 235.765C43.6609 236.583 42.5779 237.036 41.4259 237.041C41.4209 237.041 41.4138 237.041 41.4088 237.041C40.2628 237.041 39.1829 236.596 38.3689 235.788C37.5509 234.976 37.0979 233.894 37.0939 232.741C37.0899 231.588 37.5348 230.503 38.3468 229.684C39.1898 228.836 40.2999 228.411 41.4099 228.411ZM41.4099 235.677C42.1709 235.677 42.9298 235.386 43.5068 234.805C44.6538 233.649 44.6478 231.775 43.4918 230.628C42.3378 229.48 40.4619 229.486 39.3129 230.643C38.7569 231.203 38.4528 231.946 38.4548 232.735C38.4578 233.524 38.7679 234.265 39.3279 234.82C39.9029 235.392 40.6569 235.677 41.4099 235.677Z" fill="white"/>
<path opacity="0.3" d="M99.0451 228.411C100.145 228.411 101.245 228.828 102.086 229.662C103.775 231.338 103.784 234.077 102.107 235.765C101.294 236.583 100.212 237.036 99.0601 237.041C99.0551 237.041 99.0491 237.041 99.0431 237.041C97.8961 237.041 96.8171 236.596 96.0031 235.788C95.1851 234.976 94.7322 233.894 94.7282 232.741C94.7242 231.588 95.1681 230.503 95.9811 229.684C96.8241 228.836 97.9341 228.411 99.0451 228.411ZM99.0441 235.677C99.8041 235.677 100.564 235.386 101.14 234.805C102.287 233.649 102.282 231.775 101.126 230.628C99.9711 229.48 98.0972 229.486 96.9472 230.643C96.3912 231.203 96.0871 231.946 96.0901 232.735C96.0931 233.524 96.4032 234.265 96.9632 234.82C97.5372 235.392 98.2921 235.677 99.0441 235.677Z" fill="white"/>
<g opacity="0.5">
<path d="M119.038 228.579C120.139 228.579 121.176 229.007 121.958 229.783C122.744 230.563 123.179 231.603 123.183 232.71C123.187 233.817 122.759 234.86 121.979 235.646C120.368 237.27 117.737 237.277 116.116 235.667C115.33 234.887 114.895 233.847 114.891 232.74C114.887 231.633 115.314 230.59 116.095 229.804C116.876 229.018 117.915 228.584 119.022 228.579C119.028 228.579 119.033 228.579 119.038 228.579ZM119.037 235.849C119.041 235.849 119.044 235.849 119.048 235.849C119.883 235.846 120.666 235.518 121.255 234.926C121.843 234.334 122.165 233.548 122.162 232.714C122.159 231.88 121.831 231.096 121.239 230.508C120.646 229.92 119.817 229.613 119.026 229.601C118.192 229.604 117.408 229.932 116.82 230.523C116.232 231.116 115.91 231.901 115.913 232.736C115.916 233.57 116.244 234.354 116.836 234.942C117.426 235.527 118.207 235.849 119.037 235.849Z" fill="white"/>
</g>
<g opacity="0.5">
<path d="M139.031 229.09C137.024 229.09 135.396 230.718 135.396 232.725C135.396 234.733 137.024 236.36 139.031 236.36C141.039 236.36 142.666 234.733 142.666 232.725C142.666 230.718 141.039 229.09 139.031 229.09Z" fill="white"/>
</g>
<path opacity="0.5" d="M159.024 228.409C160.171 228.409 161.251 228.853 162.065 229.662C162.883 230.475 163.336 231.556 163.34 232.709C163.344 233.862 162.9 234.947 162.087 235.766C161.274 236.584 160.192 237.037 159.039 237.041C157.876 237.089 156.801 236.6 155.982 235.788C155.165 234.976 154.711 233.893 154.708 232.741C154.705 231.589 155.149 230.503 155.961 229.684C156.773 228.866 157.856 228.413 159.008 228.41C159.014 228.409 159.018 228.409 159.024 228.409ZM159.023 235.677C159.784 235.677 160.544 235.386 161.12 234.805C161.677 234.245 161.981 233.503 161.978 232.714C161.975 231.925 161.665 231.184 161.105 230.629C160.548 230.075 159.81 229.771 159.024 229.771C159.02 229.771 159.017 229.771 159.014 229.771C158.225 229.774 157.484 230.084 156.928 230.644C156.372 231.204 156.068 231.947 156.07 232.736C156.072 233.525 156.383 234.266 156.942 234.821C157.517 235.392 158.271 235.677 159.023 235.677Z" fill="white"/>
<path d="M179.017 229.09C177.009 229.09 175.382 230.718 175.382 232.725C175.382 234.733 177.009 236.36 179.017 236.36C181.024 236.36 182.652 234.733 182.652 232.725C182.652 230.718 181.024 229.09 179.017 229.09Z" fill="white"/>
<path d="M219.003 229.09C216.996 229.09 215.368 230.718 215.368 232.725C215.368 234.733 216.996 236.36 219.003 236.36C221.011 236.36 222.638 234.733 222.638 232.725C222.638 230.718 221.011 229.09 219.003 229.09Z" fill="white"/>
<path d="M59.0579 245.878C57.0503 245.878 55.4229 247.506 55.4229 249.513C55.4229 251.521 57.0503 253.148 59.0579 253.148C61.0654 253.148 62.6929 251.521 62.6929 249.513C62.6929 247.506 61.0654 245.878 59.0579 245.878Z" fill="white"/>
<path opacity="0.3" d="M99.0442 245.878C97.0366 245.878 95.4092 247.506 95.4092 249.513C95.4092 251.521 97.0366 253.148 99.0442 253.148C101.052 253.148 102.679 251.521 102.679 249.513C102.679 247.506 101.052 245.878 99.0442 245.878Z" fill="white"/>
<path opacity="0.3" d="M99.0442 127.562C97.0366 127.562 95.4092 129.19 95.4092 131.197C95.4092 133.205 97.0366 134.832 99.0442 134.832C101.052 134.832 102.679 133.205 102.679 131.197C102.679 129.19 101.052 127.562 99.0442 127.562Z" fill="white"/>
<path d="M99.0442 144.35C97.0366 144.35 95.4092 145.978 95.4092 147.985C95.4092 149.993 97.0366 151.62 99.0442 151.62C101.052 151.62 102.679 149.993 102.679 147.985C102.679 145.978 101.052 144.35 99.0442 144.35Z" fill="white"/>
<path opacity="0.3" d="M99.045 160.46C100.145 160.46 101.245 160.877 102.085 161.71C103.773 163.387 103.784 166.125 102.107 167.814C100.43 169.502 97.692 169.513 96.003 167.836C95.185 167.023 94.7321 165.941 94.7281 164.788C94.7241 163.635 95.168 162.55 95.981 161.731C96.824 160.884 97.934 160.46 99.045 160.46ZM101.126 162.677C99.968 161.529 98.0941 161.536 96.9481 162.692C95.8001 163.848 95.8061 165.722 96.9641 166.87C98.1201 168.019 99.9941 168.01 101.141 166.855C102.288 165.699 102.282 163.824 101.126 162.677Z" fill="white"/>
<path d="M99.0442 177.927C97.0366 177.927 95.4092 179.554 95.4092 181.562C95.4092 183.57 97.0366 185.197 99.0442 185.197C101.052 185.197 102.679 183.57 102.679 181.562C102.679 179.554 101.052 177.927 99.0442 177.927Z" fill="white"/>
<g opacity="0.5">
<path d="M119.038 245.369C120.094 245.369 121.151 245.769 121.958 246.571C123.58 248.181 123.59 250.812 121.979 252.434C120.37 254.057 117.74 254.066 116.116 252.455C115.33 251.675 114.895 250.635 114.891 249.528C114.887 248.42 115.314 247.378 116.095 246.592C116.905 245.777 117.971 245.369 119.038 245.369ZM121.239 247.296C120.015 246.082 118.033 246.088 116.82 247.312C115.606 248.535 115.613 250.517 116.836 251.731C118.059 252.945 120.043 252.937 121.255 251.715C121.843 251.123 122.165 250.337 122.162 249.503C122.159 248.667 121.831 247.884 121.239 247.296Z" fill="white"/>
</g>
<g opacity="0.5">
<path d="M139.031 245.199C140.131 245.199 141.231 245.615 142.071 246.449C143.759 248.126 143.77 250.864 142.093 252.553C140.415 254.241 137.678 254.251 135.989 252.575C134.301 250.898 134.291 248.16 135.967 246.471C136.81 245.624 137.92 245.199 139.031 245.199ZM141.113 247.416C139.955 246.268 138.081 246.275 136.935 247.432C135.788 248.587 135.794 250.462 136.95 251.61C138.106 252.757 139.98 252.749 141.127 251.595C142.275 250.439 142.268 248.564 141.113 247.416Z" fill="white"/>
</g>
<g opacity="0.5">
<path d="M159.024 245.878C157.017 245.878 155.389 247.506 155.389 249.513C155.389 251.521 157.017 253.148 159.024 253.148C161.032 253.148 162.659 251.521 162.659 249.513C162.659 247.506 161.032 245.878 159.024 245.878Z" fill="white"/>
</g>
<path opacity="0.5" d="M179.017 245.369C180.074 245.369 181.13 245.769 181.937 246.571C183.56 248.181 183.568 250.812 181.958 252.434C180.348 254.057 177.718 254.066 176.095 252.455C174.473 250.844 174.463 248.214 176.074 246.592C176.884 245.777 177.951 245.369 179.017 245.369ZM181.219 247.296C179.997 246.083 178.014 246.09 176.8 247.312C175.587 248.535 175.593 250.517 176.816 251.731C178.039 252.945 180.022 252.937 181.235 251.715C182.448 250.492 182.441 248.509 181.219 247.296Z" fill="white"/>
<path d="M159.024 161.439C157.017 161.439 155.389 163.067 155.389 165.074C155.389 167.082 157.017 168.709 159.024 168.709C161.032 168.709 162.659 167.082 162.659 165.074C162.659 163.067 161.032 161.439 159.024 161.439Z" fill="white"/>
<path d="M159.024 177.547C160.171 177.547 161.251 177.992 162.065 178.8C162.883 179.613 163.336 180.695 163.34 181.847C163.344 182.999 162.9 184.085 162.087 184.904C160.41 186.592 157.673 186.601 155.983 184.925C155.166 184.112 154.712 183.031 154.709 181.878C154.706 180.725 155.15 179.64 155.962 178.821C156.774 178.003 157.856 177.55 159.009 177.546C159.014 177.547 159.019 177.547 159.024 177.547ZM159.024 184.816C159.784 184.816 160.544 184.525 161.12 183.944C162.268 182.789 162.262 180.915 161.105 179.767C160.546 179.211 159.799 178.971 159.014 178.909C158.225 178.912 157.484 179.222 156.928 179.782C156.372 180.343 156.068 181.086 156.07 181.874C156.072 182.664 156.383 183.404 156.942 183.959C157.517 184.53 158.271 184.816 159.024 184.816Z" fill="white"/>
<path d="M179.017 177.719C180.074 177.719 181.13 178.119 181.937 178.921C183.56 180.532 183.568 183.162 181.958 184.784C181.178 185.57 180.138 186.005 179.031 186.009C179.026 186.009 179.021 186.009 179.016 186.009C177.914 186.009 176.878 185.581 176.096 184.805C174.474 183.195 174.464 180.566 176.075 178.943C176.884 178.127 177.951 177.719 179.017 177.719ZM179.017 184.986C179.821 184.986 180.624 184.679 181.234 184.065C182.447 182.842 182.441 180.86 181.218 179.646C179.996 178.432 178.014 178.438 176.799 179.662C175.585 180.884 175.592 182.867 176.815 184.08C177.424 184.684 178.221 184.986 179.017 184.986Z" fill="white"/>
<path opacity="0.5" d="M159.024 195.016C157.017 195.016 155.389 196.644 155.389 198.651C155.389 200.659 157.017 202.286 159.024 202.286C161.032 202.286 162.659 200.659 162.659 198.651C162.659 196.644 161.032 195.016 159.024 195.016Z" fill="white"/>
<path d="M179.017 194.506C180.119 194.506 181.155 194.933 181.937 195.71C183.56 197.32 183.568 199.949 181.958 201.572C180.347 203.195 177.716 203.204 176.095 201.593C174.473 199.982 174.463 197.352 176.074 195.73C176.854 194.944 177.894 194.509 179.001 194.505C179.008 194.506 179.013 194.506 179.017 194.506ZM179.017 201.776C179.021 201.776 179.024 201.776 179.028 201.776C179.863 201.773 180.646 201.445 181.235 200.853C182.449 199.631 182.442 197.648 181.219 196.435C179.997 195.22 178.014 195.227 176.8 196.45C175.587 197.673 175.593 199.655 176.816 200.869C177.405 201.453 178.186 201.776 179.017 201.776Z" fill="white"/>
<path d="M199.011 245.369C200.067 245.369 201.124 245.769 201.931 246.571C203.553 248.181 203.563 250.812 201.952 252.434C200.342 254.057 197.712 254.065 196.09 252.455C194.467 250.844 194.459 248.214 196.069 246.592C196.878 245.777 197.943 245.369 199.011 245.369ZM201.212 247.296C199.988 246.082 198.006 246.088 196.794 247.312C195.58 248.535 195.587 250.517 196.809 251.731C198.033 252.945 200.014 252.939 201.228 251.715C201.816 251.123 202.138 250.337 202.135 249.503C202.132 248.667 201.804 247.884 201.212 247.296Z" fill="white"/>
<path d="M219.003 245.878C216.996 245.878 215.368 247.506 215.368 249.513C215.368 251.521 216.996 253.148 219.003 253.148C221.011 253.148 222.638 251.521 222.638 249.513C222.638 247.506 221.011 245.878 219.003 245.878Z" fill="white"/>
<path d="M59.0579 262.666C57.0503 262.666 55.4229 264.294 55.4229 266.301C55.4229 268.309 57.0503 269.936 59.0579 269.936C61.0654 269.936 62.6929 268.309 62.6929 266.301C62.6929 264.294 61.0654 262.666 59.0579 262.666Z" fill="white"/>
<path d="M24.1399 262.666C22.1323 262.666 20.5049 264.294 20.5049 266.301C20.5049 268.309 22.1323 269.936 24.1399 269.936C26.1474 269.936 27.7749 268.309 27.7749 266.301C27.7749 264.294 26.1474 262.666 24.1399 262.666Z" fill="white"/>
<path d="M79.052 262.155C80.154 262.155 81.1899 262.582 81.9719 263.359C83.5939 264.97 83.6039 267.6 81.9929 269.222C81.2129 270.008 80.173 270.442 79.066 270.447C79.061 270.447 79.056 270.447 79.051 270.447C77.949 270.447 76.913 270.019 76.13 269.243C75.345 268.463 74.91 267.423 74.905 266.317C74.901 265.209 75.329 264.167 76.109 263.381C76.889 262.595 77.929 262.16 79.036 262.156C79.041 262.155 79.047 262.155 79.052 262.155ZM79.051 269.425C79.855 269.425 80.6589 269.118 81.2679 268.503C81.8559 267.911 82.1779 267.125 82.1749 266.291C82.1719 265.456 81.844 264.673 81.252 264.084C80.662 263.499 79.881 263.177 79.051 263.177C79.047 263.177 79.0429 263.177 79.0389 263.177C78.2049 263.18 77.421 263.508 76.833 264.1C76.245 264.692 75.9219 265.478 75.9249 266.312C75.9279 267.147 76.255 267.93 76.848 268.518C77.458 269.122 78.255 269.425 79.051 269.425Z" fill="white"/>
<path d="M41.4103 262.157C42.4683 262.157 43.5242 262.557 44.3312 263.359C45.9532 264.97 45.9622 267.6 44.3522 269.222C43.5712 270.008 42.5322 270.442 41.4252 270.447C41.4202 270.447 41.4152 270.447 41.4092 270.447C40.3072 270.447 39.2713 270.019 38.4893 269.243C37.7033 268.463 37.2682 267.423 37.2632 266.317C37.2592 265.209 37.6872 264.167 38.4672 263.381C39.2772 262.566 40.3443 262.157 41.4103 262.157ZM41.4103 269.425C42.2143 269.425 43.0182 269.118 43.6282 268.503C44.8412 267.281 44.8352 265.298 43.6112 264.084C43.0182 263.496 42.2232 263.126 41.3992 263.177C40.5642 263.18 39.7813 263.508 39.1923 264.1C38.6043 264.692 38.2823 265.478 38.2853 266.312C38.2883 267.146 38.6163 267.93 39.2083 268.518C39.8173 269.122 40.6143 269.425 41.4103 269.425Z" fill="white"/>
<path d="M99.0442 262.666C97.0366 262.666 95.4092 264.294 95.4092 266.301C95.4092 268.309 97.0366 269.936 99.0442 269.936C101.052 269.936 102.679 268.309 102.679 266.301C102.679 264.294 101.052 262.666 99.0442 262.666Z" fill="white"/>
<g opacity="0.5">
<path d="M119.038 262.155C120.14 262.155 121.177 262.582 121.958 263.359C123.58 264.97 123.59 267.6 121.979 269.222C121.199 270.008 120.159 270.442 119.052 270.447C119.046 270.447 119.042 270.447 119.036 270.447C117.934 270.447 116.898 270.019 116.116 269.243C115.33 268.463 114.895 267.423 114.891 266.317C114.887 265.209 115.314 264.167 116.095 263.381C116.876 262.595 117.915 262.16 119.022 262.156C119.028 262.155 119.033 262.155 119.038 262.155ZM119.038 269.425C119.842 269.425 120.645 269.118 121.255 268.503C121.843 267.911 122.165 267.125 122.162 266.291C122.159 265.456 121.831 264.673 121.239 264.084C120.649 263.499 119.868 263.177 119.038 263.177C119.034 263.177 119.03 263.177 119.026 263.177C118.192 263.18 117.408 263.508 116.82 264.1C116.232 264.692 115.91 265.478 115.913 266.312C115.916 267.147 116.244 267.93 116.836 268.518C117.444 269.122 118.241 269.425 119.038 269.425Z" fill="white"/>
</g>
<g opacity="0.5">
<path d="M139.031 262.666C137.024 262.666 135.396 264.294 135.396 266.301C135.396 268.309 137.024 269.936 139.031 269.936C141.039 269.936 142.666 268.309 142.666 266.301C142.666 264.294 141.039 262.666 139.031 262.666Z" fill="white"/>
</g>
<g opacity="0.5">
<path d="M159.024 262.666C157.017 262.666 155.389 264.294 155.389 266.301C155.389 268.309 157.017 269.936 159.024 269.936C161.032 269.936 162.659 268.309 162.659 266.301C162.659 264.294 161.032 262.666 159.024 262.666Z" fill="white"/>
</g>
<g opacity="0.5">
<path d="M179.017 262.157C180.074 262.157 181.13 262.557 181.937 263.359C183.56 264.97 183.568 267.6 181.958 269.222C181.178 270.008 180.138 270.442 179.031 270.447C179.026 270.447 179.021 270.447 179.016 270.447C177.914 270.447 176.878 270.019 176.096 269.243C174.474 267.633 174.464 265.003 176.075 263.381C176.884 262.566 177.951 262.157 179.017 262.157ZM179.017 269.425C179.821 269.425 180.624 269.118 181.234 268.503C182.447 267.281 182.441 265.298 181.218 264.084C179.996 262.87 178.014 262.877 176.799 264.1C175.585 265.323 175.592 267.305 176.815 268.518C177.424 269.122 178.221 269.425 179.017 269.425Z" fill="white"/>
</g>
<path opacity="0.5" d="M199.01 262.666C197.003 262.666 195.375 264.294 195.375 266.301C195.375 268.309 197.003 269.936 199.01 269.936C201.018 269.936 202.645 268.309 202.645 266.301C202.645 264.294 201.018 262.666 199.01 262.666Z" fill="white"/>
<path d="M219.003 262.666C216.996 262.666 215.368 264.294 215.368 266.301C215.368 268.309 216.996 269.936 219.003 269.936C221.011 269.936 222.638 268.309 222.638 266.301C222.638 264.294 221.011 262.666 219.003 262.666Z" fill="white"/>
<path d="M238.996 262.666C236.988 262.666 235.361 264.294 235.361 266.301C235.361 268.309 236.988 269.936 238.996 269.936C241.003 269.936 242.631 268.309 242.631 266.301C242.631 264.294 241.003 262.666 238.996 262.666Z" fill="white"/>
<path d="M59.0579 279.455C57.0503 279.455 55.4229 281.083 55.4229 283.09C55.4229 285.098 57.0503 286.725 59.0579 286.725C61.0654 286.725 62.6929 285.098 62.6929 283.09C62.6929 281.083 61.0654 279.455 59.0579 279.455Z" fill="white"/>
<path d="M79.051 279.455C77.0435 279.455 75.416 281.083 75.416 283.09C75.416 285.098 77.0435 286.725 79.051 286.725C81.0586 286.725 82.686 285.098 82.686 283.09C82.686 281.083 81.0586 279.455 79.051 279.455Z" fill="white"/>
<path d="M99.0442 279.455C97.0366 279.455 95.4092 281.083 95.4092 283.09C95.4092 285.098 97.0366 286.725 99.0442 286.725C101.052 286.725 102.679 285.098 102.679 283.09C102.679 281.083 101.052 279.455 99.0442 279.455Z" fill="white"/>
<path opacity="0.5" d="M119.038 278.944C120.139 278.944 121.176 279.372 121.958 280.148C122.744 280.928 123.179 281.968 123.183 283.075C123.187 284.182 122.759 285.225 121.979 286.011C120.368 287.635 117.737 287.643 116.116 286.032C115.33 285.251 114.895 284.212 114.891 283.105C114.887 281.998 115.314 280.955 116.095 280.169C116.875 279.383 117.915 278.948 119.022 278.944C119.028 278.944 119.032 278.944 119.038 278.944ZM119.037 286.214C119.041 286.214 119.044 286.214 119.048 286.214C119.883 286.211 120.666 285.883 121.255 285.291C121.843 284.699 122.165 283.913 122.162 283.079C122.159 282.245 121.831 281.461 121.239 280.873C120.647 280.285 119.828 280.003 119.026 279.966C118.191 279.968 117.408 280.297 116.82 280.889C115.606 282.111 115.613 284.094 116.836 285.307C117.426 285.892 118.207 286.214 119.037 286.214Z" fill="white"/>
<g opacity="0.5">
<path d="M139.031 279.455C137.024 279.455 135.396 281.083 135.396 283.09C135.396 285.098 137.024 286.725 139.031 286.725C141.039 286.725 142.666 285.098 142.666 283.09C142.666 281.083 141.039 279.455 139.031 279.455Z" fill="white"/>
</g>
<g opacity="0.5">
<path d="M159.024 279.455C157.017 279.455 155.389 281.083 155.389 283.09C155.389 285.098 157.017 286.725 159.024 286.725C161.032 286.725 162.659 285.098 162.659 283.09C162.659 281.083 161.032 279.455 159.024 279.455Z" fill="white"/>
</g>
<g opacity="0.5">
<path d="M179.017 278.944C180.119 278.944 181.155 279.372 181.937 280.148C183.56 281.758 183.568 284.388 181.958 286.01C180.347 287.634 177.716 287.642 176.095 286.031C174.473 284.42 174.463 281.79 176.074 280.168C176.854 279.382 177.894 278.947 179.001 278.943C179.008 278.944 179.013 278.944 179.017 278.944ZM179.017 286.214C179.021 286.214 179.024 286.214 179.028 286.214C179.863 286.211 180.646 285.883 181.235 285.291C182.449 284.068 182.442 282.086 181.219 280.873C179.997 279.659 178.014 279.665 176.8 280.889C175.587 282.111 175.593 284.094 176.816 285.307C177.405 285.892 178.186 286.214 179.017 286.214Z" fill="white"/>
</g>
<path opacity="0.5" d="M199.011 278.944C200.113 278.944 201.149 279.372 201.931 280.148C202.717 280.928 203.152 281.968 203.156 283.075C203.16 284.182 202.732 285.225 201.952 286.011C201.173 286.797 200.133 287.232 199.025 287.236C197.93 287.261 196.875 286.813 196.09 286.032C194.467 284.42 194.459 281.79 196.069 280.169C196.849 279.383 197.889 278.948 198.995 278.944C199 278.944 199.005 278.944 199.011 278.944ZM199.01 286.214C199.014 286.214 199.018 286.214 199.022 286.214C199.856 286.211 200.64 285.883 201.228 285.291C201.816 284.699 202.138 283.913 202.135 283.079C202.132 282.245 201.804 281.461 201.212 280.873C200.619 280.285 199.861 280.003 198.999 279.966C198.164 279.968 197.381 280.297 196.793 280.889C195.579 282.111 195.586 284.094 196.808 285.307C197.398 285.892 198.18 286.214 199.01 286.214Z" fill="white"/>
<path d="M219.003 279.455C216.996 279.455 215.368 281.083 215.368 283.09C215.368 285.098 216.996 286.725 219.003 286.725C221.011 286.725 222.638 285.098 222.638 283.09C222.638 281.083 221.011 279.455 219.003 279.455Z" fill="white"/>
<path d="M238.996 279.455C236.988 279.455 235.361 281.083 235.361 283.09C235.361 285.098 236.988 286.725 238.996 286.725C241.003 286.725 242.631 285.098 242.631 283.09C242.631 281.083 241.003 279.455 238.996 279.455Z" fill="white"/>
<path d="M59.0579 296.243C57.0503 296.243 55.4229 297.87 55.4229 299.878C55.4229 301.885 57.0503 303.513 59.0579 303.513C61.0654 303.513 62.6929 301.885 62.6929 299.878C62.6929 297.87 61.0654 296.243 59.0579 296.243Z" fill="white"/>
<path d="M79.051 295.734C80.107 295.734 81.1649 296.134 81.9709 296.935C83.5929 298.546 83.6029 301.176 81.9919 302.798C80.3829 304.42 77.752 304.43 76.129 302.819C75.344 302.038 74.9089 300.999 74.9039 299.892C74.8999 298.784 75.328 297.742 76.108 296.956C76.919 296.142 77.984 295.734 79.051 295.734ZM81.2529 297.66C80.0289 296.446 78.047 296.452 76.835 297.676C75.621 298.899 75.627 300.881 76.85 302.095C78.073 303.308 80.0559 303.301 81.2689 302.079C81.8569 301.487 82.179 300.701 82.176 299.867C82.173 299.031 81.8449 298.249 81.2529 297.66Z" fill="white"/>
<path d="M41.4103 295.734C42.4673 295.734 43.5242 296.134 44.3312 296.935C45.9532 298.546 45.9622 301.176 44.3522 302.798C42.7422 304.42 40.1123 304.43 38.4893 302.819C36.8673 301.208 36.8573 298.578 38.4683 296.956C39.2773 296.142 40.3433 295.734 41.4103 295.734ZM43.6112 297.66C42.3892 296.447 40.4063 296.454 39.1923 297.676C37.9783 298.899 37.9863 300.881 39.2083 302.095C40.4313 303.308 42.4142 303.301 43.6272 302.079C44.8412 300.857 44.8342 298.874 43.6112 297.66Z" fill="white"/>
<path d="M99.0442 296.243C97.0366 296.243 95.4092 297.87 95.4092 299.878C95.4092 301.885 97.0366 303.513 99.0442 303.513C101.052 303.513 102.679 301.885 102.679 299.878C102.679 297.87 101.052 296.243 99.0442 296.243Z" fill="white"/>
<g opacity="0.5">
<path d="M119.038 295.734C120.094 295.734 121.151 296.134 121.958 296.935C123.58 298.546 123.59 301.176 121.979 302.798C120.37 304.42 117.74 304.43 116.116 302.819C115.33 302.038 114.895 300.999 114.891 299.892C114.887 298.784 115.314 297.742 116.095 296.956C116.905 296.142 117.971 295.734 119.038 295.734ZM121.239 297.66C120.015 296.446 118.033 296.452 116.82 297.676C115.606 298.899 115.613 300.881 116.836 302.095C118.059 303.308 120.043 303.301 121.255 302.079C121.843 301.487 122.165 300.701 122.162 299.867C122.159 299.031 121.831 298.249 121.239 297.66Z" fill="white"/>
</g>
<g opacity="0.5">
<path d="M139.031 296.243C137.024 296.243 135.396 297.87 135.396 299.878C135.396 301.885 137.024 303.513 139.031 303.513C141.039 303.513 142.666 301.885 142.666 299.878C142.666 297.87 141.039 296.243 139.031 296.243Z" fill="white"/>
</g>
<g opacity="0.5">
<path d="M159.024 295.564C160.124 295.564 161.224 295.98 162.065 296.814C162.883 297.627 163.336 298.709 163.34 299.861C163.344 301.013 162.9 302.099 162.087 302.918C160.41 304.605 157.672 304.616 155.983 302.94C155.165 302.128 154.712 301.045 154.708 299.893C154.704 298.741 155.149 297.655 155.961 296.836C156.804 295.988 157.914 295.564 159.024 295.564ZM161.105 297.781C159.948 296.633 158.074 296.641 156.927 297.796C155.78 298.952 155.786 300.827 156.942 301.974C158.098 303.122 159.973 303.115 161.119 301.958C162.268 300.803 162.261 298.929 161.105 297.781Z" fill="white"/>
</g>
<g opacity="0.5">
<path d="M179.017 295.734C180.074 295.734 181.13 296.134 181.937 296.935C183.56 298.546 183.568 301.176 181.958 302.798C180.348 304.42 177.718 304.43 176.095 302.819C174.473 301.208 174.463 298.578 176.074 296.956C176.884 296.142 177.951 295.734 179.017 295.734ZM181.219 297.66C179.997 296.447 178.014 296.454 176.8 297.676C175.587 298.899 175.593 300.881 176.816 302.095C178.039 303.308 180.022 303.301 181.235 302.079C182.448 300.857 182.441 298.874 181.219 297.66Z" fill="white"/>
</g>
<path opacity="0.5" d="M199.011 295.734C200.067 295.734 201.124 296.134 201.931 296.935C203.553 298.546 203.563 301.176 201.952 302.798C200.342 304.421 197.712 304.429 196.09 302.819C194.467 301.207 194.459 298.577 196.069 296.956C196.878 296.142 197.943 295.734 199.011 295.734ZM201.212 297.66C199.988 296.446 198.006 296.452 196.794 297.676C195.58 298.899 195.587 300.881 196.809 302.095C198.033 303.309 200.014 303.303 201.228 302.079C201.816 301.487 202.138 300.701 202.135 299.867C202.132 299.031 201.804 298.249 201.212 297.66Z" fill="white"/>
<path d="M219.003 296.243C216.996 296.243 215.368 297.87 215.368 299.878C215.368 301.885 216.996 303.513 219.003 303.513C221.011 303.513 222.638 301.885 222.638 299.878C222.638 297.87 221.011 296.243 219.003 296.243Z" fill="white"/>
<path d="M238.996 296.243C236.988 296.243 235.361 297.87 235.361 299.878C235.361 301.885 236.988 303.513 238.996 303.513C241.003 303.513 242.631 301.885 242.631 299.878C242.631 297.87 241.003 296.243 238.996 296.243Z" fill="white"/>
<path d="M59.059 313.576C60.206 313.576 61.285 314.021 62.1 314.829C63.788 316.506 63.797 319.244 62.121 320.933C60.445 322.621 57.706 322.631 56.018 320.955C55.2 320.142 54.747 319.06 54.743 317.908C54.739 316.755 55.183 315.669 55.996 314.851C56.809 314.033 57.891 313.58 59.043 313.576C59.048 313.576 59.054 313.576 59.059 313.576ZM59.0581 320.845C59.8181 320.845 60.5781 320.554 61.1551 319.974C62.3021 318.818 62.2971 316.943 61.1401 315.796C59.9831 314.648 58.1091 314.655 56.9631 315.811C55.8151 316.967 55.8211 318.841 56.9781 319.989C57.5521 320.56 58.3051 320.845 59.0581 320.845Z" fill="white"/>
<path d="M79.052 313.746C80.154 313.746 81.1899 314.174 81.9719 314.95C83.5939 316.561 83.6039 319.191 81.9929 320.813C80.3839 322.436 77.753 322.445 76.13 320.834C75.345 320.054 74.91 319.014 74.905 317.907C74.901 316.8 75.329 315.757 76.109 314.971C76.889 314.185 77.929 313.749 79.036 313.745C79.041 313.746 79.047 313.746 79.052 313.746ZM79.051 321.015C79.856 321.015 80.6589 320.708 81.2689 320.094C81.8569 319.502 82.179 318.716 82.176 317.882C82.173 317.047 81.8449 316.264 81.2529 315.675C80.6629 315.09 79.882 314.768 79.052 314.768C79.048 314.768 79.044 314.768 79.04 314.768C78.206 314.771 77.422 315.099 76.834 315.691C75.62 316.914 75.626 318.896 76.849 320.11C77.458 320.713 78.255 321.015 79.051 321.015Z" fill="white"/>
<path opacity="0.3" d="M99.0461 313.576C100.192 313.576 101.272 314.021 102.086 314.829C103.774 316.506 103.784 319.244 102.107 320.933C100.43 322.621 97.692 322.633 96.003 320.956C95.185 320.143 94.7321 319.061 94.7281 317.909C94.7241 316.756 95.168 315.67 95.981 314.852C96.794 314.034 97.876 313.581 99.029 313.577C99.034 313.576 99.0401 313.576 99.0461 313.576ZM99.044 320.845C99.804 320.845 100.564 320.554 101.14 319.973C102.287 318.817 102.282 316.943 101.125 315.795C99.9691 314.647 98.0941 314.654 96.9471 315.81C95.7991 316.966 95.8051 318.84 96.9631 319.988C97.5381 320.56 98.292 320.845 99.044 320.845Z" fill="white"/>
<path d="M119.038 313.746C120.14 313.746 121.177 314.174 121.958 314.95C123.58 316.561 123.59 319.191 121.979 320.813C120.37 322.436 117.74 322.445 116.116 320.834C115.33 320.054 114.895 319.014 114.891 317.907C114.887 316.8 115.314 315.757 116.095 314.971C116.875 314.185 117.915 313.749 119.022 313.745C119.028 313.746 119.033 313.746 119.038 313.746ZM119.037 321.015C119.842 321.015 120.645 320.708 121.255 320.094C121.843 319.502 122.165 318.716 122.162 317.882C122.159 317.047 121.831 316.264 121.239 315.675C120.646 315.087 119.82 314.761 119.026 314.768C118.192 314.771 117.408 315.099 116.82 315.691C115.606 316.914 115.613 318.896 116.836 320.11C117.444 320.713 118.241 321.015 119.037 321.015Z" fill="white"/>
<path d="M139.031 314.257C137.024 314.257 135.396 315.885 135.396 317.892C135.396 319.9 137.024 321.527 139.031 321.527C141.039 321.527 142.666 319.9 142.666 317.892C142.666 315.885 141.039 314.257 139.031 314.257Z" fill="white"/>
<path d="M159.024 313.576C160.171 313.576 161.251 314.021 162.065 314.829C162.883 315.642 163.336 316.724 163.34 317.876C163.344 319.028 162.9 320.115 162.087 320.933C160.41 322.62 157.672 322.631 155.983 320.955C155.165 320.142 154.712 319.06 154.708 317.908C154.704 316.755 155.149 315.669 155.961 314.851C156.773 314.033 157.855 313.58 159.008 313.576C159.014 313.576 159.019 313.576 159.024 313.576ZM159.023 320.845C159.784 320.845 160.544 320.554 161.12 319.973C162.268 318.817 162.262 316.943 161.105 315.795C160.546 315.238 159.799 314.902 159.014 314.937C158.225 314.94 157.484 315.25 156.928 315.81C155.781 316.966 155.787 318.841 156.943 319.988C157.517 320.56 158.271 320.845 159.023 320.845Z" fill="white"/>
<path d="M179.017 313.748C180.074 313.748 181.13 314.148 181.937 314.95C183.56 316.561 183.568 319.191 181.958 320.813C180.348 322.436 177.718 322.445 176.095 320.834C174.473 319.223 174.463 316.593 176.074 314.971C176.884 314.156 177.951 313.748 179.017 313.748ZM179.017 321.015C179.821 321.015 180.625 320.708 181.235 320.094C182.448 318.871 182.442 316.889 181.219 315.675C179.997 314.461 178.015 314.468 176.8 315.691C175.587 316.914 175.593 318.896 176.816 320.11C177.424 320.713 178.221 321.015 179.017 321.015Z" fill="white"/>
<path d="M199.01 314.257C197.003 314.257 195.375 315.885 195.375 317.892C195.375 319.9 197.003 321.527 199.01 321.527C201.018 321.527 202.645 319.9 202.645 317.892C202.645 315.885 201.018 314.257 199.01 314.257Z" fill="white"/>
<path d="M219.005 313.576C220.151 313.576 221.231 314.021 222.045 314.829C223.733 316.506 223.743 319.244 222.066 320.933C220.39 322.621 217.651 322.633 215.962 320.956C214.274 319.279 214.264 316.541 215.94 314.852C216.753 314.034 217.835 313.581 218.988 313.577C218.994 313.576 218.999 313.576 219.005 313.576ZM219.003 320.845C219.763 320.845 220.523 320.554 221.1 319.973C222.247 318.817 222.241 316.943 221.084 315.795C219.928 314.647 218.053 314.654 216.906 315.81C215.759 316.966 215.765 318.84 216.922 319.988C217.497 320.56 218.251 320.845 219.003 320.845Z" fill="white"/>
<path d="M238.996 314.257C236.988 314.257 235.361 315.885 235.361 317.892C235.361 319.9 236.988 321.527 238.996 321.527C241.003 321.527 242.631 319.9 242.631 317.892C242.631 315.885 241.003 314.257 238.996 314.257Z" fill="white"/>
<path d="M59.0589 330.364C60.2059 330.364 61.285 330.808 62.099 331.617C62.917 332.43 63.37 333.511 63.374 334.664C63.378 335.817 62.9329 336.902 62.1209 337.721C61.3089 338.539 60.2269 338.992 59.0749 338.996C57.9299 339.051 56.8359 338.555 56.0179 337.743C55.1999 336.93 54.7469 335.849 54.7429 334.696C54.7389 333.543 55.1829 332.458 55.9959 331.639C56.8089 330.821 57.8909 330.368 59.0429 330.364C59.0479 330.364 59.0539 330.364 59.0589 330.364ZM59.058 337.634C59.061 337.634 59.0649 337.634 59.0689 337.634C59.8579 337.631 60.599 337.321 61.155 336.761C61.711 336.201 62.0149 335.458 62.0129 334.669C62.0099 333.88 61.7 333.139 61.14 332.584C59.983 331.436 58.109 331.443 56.963 332.599C56.406 333.159 56.102 333.901 56.105 334.69C56.108 335.48 56.418 336.22 56.978 336.776C57.534 337.33 58.272 337.634 59.058 337.634Z" fill="white"/>
<path d="M79.0522 330.534C80.1542 330.534 81.1901 330.962 81.9721 331.738C82.7581 332.518 83.1932 333.557 83.1982 334.664C83.2022 335.772 82.7742 336.814 81.9942 337.6C80.3832 339.223 77.7522 339.232 76.1312 337.621C75.3462 336.841 74.9112 335.801 74.9062 334.694C74.9022 333.587 75.3302 332.544 76.1102 331.758C76.8902 330.972 77.9302 330.537 79.0372 330.533C79.0412 330.534 79.0472 330.534 79.0522 330.534ZM79.0512 337.805C79.0552 337.805 79.0582 337.805 79.0622 337.805C79.8972 337.802 80.6801 337.474 81.2691 336.882C81.8571 336.289 82.1792 335.504 82.1762 334.669C82.1732 333.835 81.8451 333.051 81.2531 332.463C80.6631 331.878 79.8822 331.555 79.0522 331.555C79.0482 331.555 79.0443 331.555 79.0403 331.555C78.2063 331.558 77.4222 331.886 76.8342 332.479C76.2462 333.071 75.9232 333.857 75.9262 334.691C75.9292 335.526 76.2562 336.309 76.8492 336.897C77.4392 337.482 78.2212 337.805 79.0512 337.805Z" fill="white"/>
<path d="M99.0442 331.045C97.0366 331.045 95.4092 332.673 95.4092 334.68C95.4092 336.688 97.0366 338.315 99.0442 338.315C101.052 338.315 102.679 336.688 102.679 334.68C102.679 332.673 101.052 331.045 99.0442 331.045Z" fill="white"/>
<path d="M119.038 330.534C120.14 330.534 121.177 330.962 121.958 331.738C122.744 332.518 123.179 333.557 123.183 334.664C123.187 335.772 122.759 336.814 121.979 337.6C120.368 339.223 117.737 339.232 116.116 337.621C115.33 336.841 114.895 335.801 114.891 334.694C114.887 333.587 115.314 332.544 116.095 331.758C116.875 330.972 117.915 330.537 119.022 330.533C119.028 330.534 119.033 330.534 119.038 330.534ZM119.037 337.805C119.041 337.805 119.044 337.805 119.048 337.805C119.883 337.802 120.666 337.474 121.255 336.882C121.843 336.289 122.165 335.504 122.162 334.669C122.159 333.835 121.831 333.051 121.239 332.463C120.649 331.878 119.868 331.555 119.038 331.555C119.034 331.555 119.03 331.555 119.026 331.555C118.192 331.558 117.408 331.886 116.82 332.479C116.232 333.071 115.91 333.857 115.913 334.691C115.916 335.526 116.244 336.309 116.836 336.897C117.426 337.482 118.207 337.805 119.037 337.805Z" fill="white"/>
<path d="M139.031 331.045C137.024 331.045 135.396 332.673 135.396 334.68C135.396 336.688 137.024 338.315 139.031 338.315C141.039 338.315 142.666 336.688 142.666 334.68C142.666 332.673 141.039 331.045 139.031 331.045Z" fill="white"/>
<path d="M159.024 331.045C157.017 331.045 155.389 332.673 155.389 334.68C155.389 336.688 157.017 338.315 159.024 338.315C161.032 338.315 162.659 336.688 162.659 334.68C162.659 332.673 161.032 331.045 159.024 331.045Z" fill="white"/>
<path d="M4.14694 330.536C5.20395 330.536 6.26099 330.936 7.06699 331.738C7.85299 332.518 8.28796 333.557 8.29196 334.664C8.29596 335.772 7.86898 336.814 7.08798 337.6C6.30898 338.386 5.26896 338.821 4.16196 338.825C4.15596 338.825 4.15099 338.825 4.14499 338.825C3.04299 338.825 2.00692 338.398 1.22592 337.621C0.439924 336.841 0.00497246 335.801 -2.76566e-05 334.694C-0.00302792 333.587 0.422952 332.544 1.20395 331.758C2.01395 330.945 3.08095 330.536 4.14694 330.536ZM4.14499 337.805C4.14899 337.805 4.15295 337.805 4.15695 337.805C4.99095 337.802 5.77501 337.474 6.36301 336.882C6.95201 336.289 7.27397 335.504 7.27097 334.669C7.26797 333.834 6.93999 333.051 6.34799 332.463C5.75499 331.875 4.95598 331.541 4.13498 331.555C3.29998 331.558 2.51693 331.886 1.92893 332.479C1.33993 333.071 1.01897 333.857 1.02097 334.691C1.02397 335.525 1.35192 336.309 1.94492 336.897C2.53492 337.482 3.31599 337.805 4.14499 337.805Z" fill="white"/>
<path d="M24.1399 331.045C22.1323 331.045 20.5049 332.673 20.5049 334.68C20.5049 336.688 22.1323 338.315 24.1399 338.315C26.1474 338.315 27.7749 336.688 27.7749 334.68C27.7749 332.673 26.1474 331.045 24.1399 331.045Z" fill="white"/>
<path d="M41.41 331.045C39.4025 331.045 37.775 332.673 37.775 334.68C37.775 336.688 39.4025 338.315 41.41 338.315C43.4176 338.315 45.0449 336.688 45.0449 334.68C45.0449 332.673 43.4176 331.045 41.41 331.045Z" fill="white"/>
<path d="M179.017 330.536C180.074 330.536 181.13 330.936 181.937 331.738C183.56 333.348 183.568 335.977 181.958 337.6C180.347 339.223 177.716 339.232 176.095 337.621C174.473 336.011 174.463 333.381 176.074 331.758C176.884 330.945 177.951 330.536 179.017 330.536ZM179.017 337.805C179.021 337.805 179.024 337.805 179.028 337.805C179.863 337.802 180.646 337.474 181.235 336.882C182.449 335.659 182.442 333.677 181.219 332.464C179.997 331.249 178.015 331.257 176.8 332.48C175.586 333.703 175.593 335.685 176.816 336.898C177.405 337.482 178.186 337.805 179.017 337.805Z" fill="white"/>
<path d="M199.01 331.045C197.003 331.045 195.375 332.673 195.375 334.68C195.375 336.688 197.003 338.315 199.01 338.315C201.018 338.315 202.645 336.688 202.645 334.68C202.645 332.673 201.018 331.045 199.01 331.045Z" fill="white"/>
<path d="M219.003 331.045C216.996 331.045 215.368 332.673 215.368 334.68C215.368 336.688 216.996 338.315 219.003 338.315C221.011 338.315 222.638 336.688 222.638 334.68C222.638 332.673 221.011 331.045 219.003 331.045Z" fill="white"/>
<path d="M238.996 331.045C236.988 331.045 235.361 332.673 235.361 334.68C235.361 336.688 236.988 338.315 238.996 338.315C241.003 338.315 242.631 336.688 242.631 334.68C242.631 332.673 241.003 331.045 238.996 331.045Z" fill="white"/>
<g opacity="0.9">
<path opacity="0.63" d="M479.25 195.513C477.243 195.513 475.615 197.141 475.615 199.148C475.615 201.156 477.243 202.783 479.25 202.783C481.258 202.783 482.885 201.156 482.885 199.148C482.885 197.141 481.258 195.513 479.25 195.513Z" fill="white"/>
</g>
<g opacity="0.9">
<path d="M499.243 195.005C500.3 195.005 501.357 195.405 502.164 196.207C502.95 196.987 503.385 198.026 503.389 199.133C503.393 200.241 502.966 201.283 502.185 202.069C500.576 203.691 497.945 203.701 496.323 202.09C494.701 200.479 494.691 197.849 496.302 196.227C497.11 195.412 498.177 195.005 499.243 195.005ZM499.243 202.271C500.047 202.271 500.85 201.964 501.46 201.35C502.048 200.758 502.371 199.972 502.368 199.138C502.365 198.303 502.037 197.52 501.445 196.932C500.222 195.718 498.239 195.724 497.026 196.947C495.812 198.17 495.819 200.152 497.042 201.366C497.65 201.969 498.447 202.271 499.243 202.271Z" fill="white"/>
</g>
<g opacity="0.9">
<path d="M597.168 195.513C595.161 195.513 593.533 197.141 593.533 199.148C593.533 201.156 595.161 202.783 597.168 202.783C599.176 202.783 600.803 201.156 600.803 199.148C600.803 197.141 599.176 195.513 597.168 195.513Z" fill="white"/>
</g>
<g opacity="0.9">
<path d="M597.168 176.803C595.161 176.803 593.533 178.43 593.533 180.438C593.533 182.446 595.161 184.073 597.168 184.073C599.176 184.073 600.803 182.446 600.803 180.438C600.803 178.43 599.176 176.803 597.168 176.803Z" fill="white"/>
</g>
<g opacity="0.9">
<path d="M617.162 195.005C618.219 195.005 619.276 195.405 620.083 196.207C620.868 196.987 621.303 198.026 621.307 199.133C621.311 200.241 620.884 201.283 620.103 202.069C618.494 203.691 615.863 203.701 614.241 202.09C612.618 200.479 612.608 197.849 614.22 196.227C615.029 195.412 616.095 195.005 617.162 195.005ZM617.162 202.271C617.965 202.271 618.769 201.964 619.379 201.35C619.967 200.758 620.29 199.972 620.286 199.138C620.283 198.303 619.956 197.52 619.363 196.932C618.141 195.718 616.158 195.724 614.944 196.947C613.73 198.17 613.737 200.152 614.96 201.366C615.568 201.969 616.366 202.271 617.162 202.271Z" fill="white"/>
</g>
<g opacity="0.9">
<path d="M479.25 212.302C477.243 212.302 475.615 213.929 475.615 215.937C475.615 217.945 477.243 219.572 479.25 219.572C481.258 219.572 482.885 217.945 482.885 215.937C482.885 213.929 481.258 212.302 479.25 212.302Z" fill="white"/>
</g>
<path opacity="0.9" d="M479.25 229.09C477.243 229.09 475.615 230.718 475.615 232.725C475.615 234.733 477.243 236.36 479.25 236.36C481.258 236.36 482.885 234.733 482.885 232.725C482.885 230.718 481.258 229.09 479.25 229.09Z" fill="white"/>
<g opacity="0.9">
<path opacity="0.2" d="M499.244 228.581C500.3 228.581 501.357 228.981 502.164 229.783C502.95 230.563 503.385 231.603 503.389 232.71C503.393 233.817 502.966 234.86 502.185 235.646C501.405 236.432 500.365 236.867 499.259 236.871C498.18 236.896 497.108 236.448 496.323 235.667C495.537 234.887 495.102 233.847 495.098 232.74C495.094 231.633 495.521 230.59 496.302 229.804C497.11 228.989 498.177 228.581 499.244 228.581ZM499.243 235.849C499.247 235.849 499.251 235.849 499.255 235.849C500.089 235.846 500.873 235.518 501.461 234.926C502.049 234.334 502.372 233.548 502.369 232.714C502.366 231.879 502.038 231.096 501.446 230.508C500.223 229.294 498.241 229.3 497.027 230.523C496.439 231.116 496.117 231.901 496.12 232.736C496.123 233.57 496.451 234.354 497.043 234.942C497.632 235.527 498.413 235.849 499.243 235.849Z" fill="white"/>
</g>
<path d="M479.251 330.364C480.398 330.364 481.477 330.808 482.291 331.617C483.109 332.43 483.562 333.511 483.567 334.664C483.571 335.817 483.126 336.902 482.314 337.721C481.502 338.539 480.419 338.992 479.267 338.996C479.262 338.996 479.256 338.996 479.25 338.996C478.104 338.996 477.024 338.551 476.21 337.743C474.522 336.067 474.511 333.329 476.188 331.64C477 330.822 478.083 330.369 479.235 330.365C479.24 330.364 479.246 330.364 479.251 330.364ZM479.249 337.633C480.01 337.633 480.77 337.342 481.346 336.761C481.903 336.201 482.207 335.459 482.204 334.67C482.201 333.881 481.891 333.14 481.331 332.585H481.33C480.174 331.437 478.299 331.444 477.152 332.6C476.005 333.756 476.011 335.63 477.167 336.777C477.743 337.347 478.497 337.633 479.249 337.633Z" fill="white"/>
<path d="M499.244 330.536C500.301 330.536 501.357 330.936 502.164 331.738C502.95 332.518 503.385 333.557 503.389 334.664C503.393 335.772 502.966 336.814 502.185 337.6C501.405 338.386 500.365 338.821 499.259 338.825C498.18 338.869 497.108 338.402 496.323 337.621C495.537 336.841 495.102 335.801 495.098 334.694C495.094 333.587 495.521 332.544 496.302 331.758C497.11 330.945 498.178 330.536 499.244 330.536ZM499.243 337.805C499.247 337.805 499.251 337.805 499.255 337.805C500.089 337.802 500.873 337.474 501.461 336.882C502.049 336.289 502.372 335.504 502.369 334.669C502.366 333.834 502.038 333.051 501.446 332.463C500.856 331.878 500.075 331.555 499.245 331.555C499.241 331.555 499.237 331.555 499.233 331.555C498.398 331.558 497.615 331.886 497.026 332.479C496.438 333.071 496.116 333.857 496.119 334.691C496.122 335.525 496.45 336.309 497.042 336.897C497.632 337.482 498.413 337.805 499.243 337.805Z" fill="white"/>
<g opacity="0.63">
<path d="M459.115 195.513C457.107 195.513 455.48 197.141 455.48 199.148C455.48 201.156 457.107 202.783 459.115 202.783C461.123 202.783 462.75 201.156 462.75 199.148C462.75 197.141 461.123 195.513 459.115 195.513Z" fill="white"/>
</g>
<g opacity="0.63">
<path d="M459.115 166.072C457.107 166.072 455.48 167.699 455.48 169.707C455.48 171.715 457.107 173.342 459.115 173.342C461.123 173.342 462.75 171.715 462.75 169.707C462.75 167.699 461.123 166.072 459.115 166.072Z" fill="white"/>
</g>
<g opacity="0.63">
<path d="M459.115 212.302C457.107 212.302 455.48 213.929 455.48 215.937C455.48 217.945 457.107 219.572 459.115 219.572C461.123 219.572 462.75 217.945 462.75 215.937C462.75 213.929 461.123 212.302 459.115 212.302Z" fill="white"/>
</g>
<g opacity="0.63">
<path d="M459.115 229.09C457.107 229.09 455.48 230.718 455.48 232.725C455.48 234.733 457.107 236.36 459.115 236.36C461.123 236.36 462.75 234.733 462.75 232.725C462.75 230.718 461.123 229.09 459.115 229.09Z" fill="white"/>
</g>
<g opacity="0.9">
<path opacity="0.2" d="M540.631 228.579C541.733 228.579 542.769 229.007 543.552 229.783C544.338 230.563 544.773 231.603 544.777 232.71C544.781 233.817 544.354 234.86 543.573 235.646C541.962 237.27 539.332 237.277 537.71 235.667C536.924 234.887 536.489 233.847 536.485 232.74C536.481 231.633 536.908 230.59 537.689 229.804C538.469 229.018 539.508 228.584 540.615 228.579C540.621 228.579 540.626 228.579 540.631 228.579ZM540.63 235.849C540.634 235.849 540.637 235.849 540.641 235.849C541.476 235.846 542.259 235.518 542.848 234.926C543.436 234.334 543.758 233.548 543.755 232.714C543.752 231.88 543.424 231.096 542.831 230.508C542.239 229.92 541.435 229.613 540.619 229.601C539.785 229.604 539 229.932 538.413 230.523C537.825 231.116 537.502 231.901 537.505 232.736C537.508 233.57 537.836 234.354 538.428 234.942C539.019 235.527 539.8 235.849 540.63 235.849Z" fill="white"/>
</g>
<path opacity="0.2" d="M560.624 229.09C558.616 229.09 556.989 230.718 556.989 232.725C556.989 234.733 558.616 236.36 560.624 236.36C562.631 236.36 564.259 234.733 564.259 232.725C564.259 230.718 562.631 229.09 560.624 229.09Z" fill="white"/>
<path d="M580.618 229.09C578.61 229.09 576.983 230.718 576.983 232.725C576.983 234.733 578.61 236.36 580.618 236.36C582.625 236.36 584.253 234.733 584.253 232.725C584.253 230.718 582.625 229.09 580.618 229.09Z" fill="white"/>
<g opacity="0.9">
<path opacity="0.2" d="M520.639 228.961C521.695 228.961 522.752 229.361 523.559 230.163C525.181 231.774 525.19 234.404 523.58 236.026C521.969 237.649 519.339 237.658 517.717 236.047C516.094 234.437 516.085 231.806 517.696 230.184C518.505 229.369 519.571 228.961 520.639 228.961ZM522.84 230.887C521.618 229.674 519.634 229.681 518.421 230.903C517.833 231.496 517.511 232.281 517.513 233.116C517.517 233.951 517.844 234.734 518.437 235.322C519.66 236.536 521.641 236.53 522.856 235.306C524.069 234.084 524.062 232.101 522.84 230.887Z" fill="white"/>
</g>
<path opacity="0.2" d="M620.796 229.09C618.789 229.09 617.161 230.718 617.161 232.725C617.161 234.733 618.789 236.36 620.796 236.36C622.804 236.36 624.431 234.733 624.431 232.725C624.431 230.718 622.804 229.09 620.796 229.09Z" fill="white"/>
<g opacity="0.9">
<path opacity="0.2" d="M640.79 228.581C641.847 228.581 642.903 228.981 643.711 229.783C645.333 231.393 645.342 234.023 643.732 235.645C642.121 237.269 639.49 237.276 637.869 235.666C636.247 234.056 636.237 231.426 637.848 229.803C638.657 228.989 639.723 228.581 640.79 228.581ZM640.789 235.849C640.793 235.849 640.796 235.849 640.8 235.849C641.635 235.846 642.418 235.518 643.006 234.926C644.221 233.703 644.213 231.721 642.99 230.508C641.767 229.294 639.784 229.3 638.571 230.523C637.357 231.747 637.364 233.729 638.587 234.942C639.178 235.527 639.959 235.849 640.789 235.849Z" fill="white"/>
</g>
<path d="M600.662 229.09C598.654 229.09 597.027 230.718 597.027 232.725C597.027 234.733 598.654 236.36 600.662 236.36C602.669 236.36 604.297 234.733 604.297 232.725C604.297 230.718 602.669 229.09 600.662 229.09Z" fill="white"/>
<path opacity="0.63" d="M459.115 245.199C460.215 245.199 461.315 245.615 462.155 246.449H462.156C462.973 247.261 463.427 248.344 463.431 249.496C463.435 250.649 462.99 251.734 462.178 252.553C460.501 254.24 457.763 254.251 456.074 252.575C455.256 251.762 454.803 250.68 454.799 249.528C454.796 248.375 455.24 247.29 456.052 246.471C456.894 245.623 458.005 245.199 459.115 245.199ZM461.197 247.416C460.04 246.268 458.166 246.276 457.019 247.431C455.871 248.587 455.878 250.462 457.033 251.61C458.19 252.758 460.064 252.75 461.212 251.594C462.359 250.439 462.352 248.565 461.197 247.416Z" fill="white"/>
<path d="M459.116 261.985C460.262 261.985 461.342 262.43 462.156 263.238C462.973 264.051 463.427 265.133 463.431 266.286C463.435 267.439 462.99 268.524 462.178 269.343C460.501 271.031 457.763 271.04 456.074 269.364C455.256 268.551 454.804 267.469 454.799 266.317C454.796 265.164 455.24 264.079 456.052 263.26C456.865 262.443 457.946 261.989 459.099 261.985C459.104 261.985 459.11 261.985 459.116 261.985ZM459.115 269.254C459.875 269.254 460.635 268.963 461.212 268.382C462.359 267.227 462.353 265.353 461.196 264.204C460.636 263.648 459.889 263.336 459.104 263.346C458.315 263.349 457.574 263.659 457.019 264.219C456.463 264.78 456.158 265.523 456.161 266.311C456.164 267.1 456.474 267.841 457.034 268.396C457.609 268.969 458.362 269.254 459.115 269.254Z" fill="white"/>
<g opacity="0.63">
<path d="M459.116 180.25C460.262 180.25 461.342 180.695 462.156 181.503C462.973 182.316 463.427 183.398 463.431 184.55C463.435 185.703 462.99 186.788 462.178 187.607C460.501 189.295 457.763 189.305 456.074 187.628C455.256 186.815 454.804 185.734 454.799 184.581C454.796 183.428 455.24 182.343 456.052 181.524C456.865 180.706 457.946 180.253 459.099 180.249C459.104 180.25 459.11 180.25 459.116 180.25ZM459.115 187.519C459.875 187.519 460.635 187.228 461.212 186.647C462.359 185.492 462.353 183.618 461.196 182.47C460.636 181.914 459.889 181.651 459.104 181.612C458.315 181.615 457.574 181.925 457.019 182.485C456.463 183.046 456.158 183.789 456.161 184.577C456.164 185.366 456.474 186.107 457.034 186.663C457.609 187.234 458.362 187.519 459.115 187.519Z" fill="white"/>
</g>
<path d="M459.115 331.045C457.107 331.045 455.48 332.673 455.48 334.68C455.48 336.688 457.107 338.315 459.115 338.315C461.123 338.315 462.75 336.688 462.75 334.68C462.75 332.673 461.123 331.045 459.115 331.045Z" fill="white"/>
<path d="M459.115 314.257C457.107 314.257 455.48 315.885 455.48 317.892C455.48 319.9 457.107 321.527 459.115 321.527C461.123 321.527 462.75 319.9 462.75 317.892C462.75 315.885 461.123 314.257 459.115 314.257Z" fill="white"/>
<path opacity="0.2" d="M736.42 182.223C737.573 182.228 738.654 182.681 739.466 183.498C740.279 184.316 740.723 185.402 740.72 186.555C740.715 187.708 740.262 188.789 739.445 189.602C738.627 190.415 737.565 190.906 736.388 190.855C735.236 190.851 734.154 190.398 733.341 189.581C732.529 188.763 732.084 187.677 732.088 186.524C732.092 185.371 732.546 184.289 733.364 183.477C734.177 182.668 735.257 182.224 736.403 182.224C736.409 182.223 736.415 182.223 736.42 182.223ZM738.486 188.635C739.046 188.079 739.356 187.339 739.359 186.55C739.362 185.761 739.057 185.018 738.501 184.458C737.946 183.898 737.205 183.588 736.416 183.585C736.413 183.585 736.408 183.585 736.405 183.585C735.62 183.585 734.881 183.889 734.324 184.443C733.764 184.999 733.454 185.739 733.451 186.529C733.449 187.318 733.753 188.061 734.309 188.621C734.866 189.181 735.606 189.491 736.395 189.494C736.398 189.494 736.402 189.494 736.406 189.494C737.189 189.494 737.928 189.189 738.486 188.635Z" fill="white"/>
<path d="M756.398 199.693C754.391 199.693 752.763 201.321 752.763 203.328C752.763 205.336 754.391 206.963 756.398 206.963C758.406 206.963 760.033 205.336 760.033 203.328C760.033 201.321 758.406 199.693 756.398 199.693Z" fill="white"/>
<path d="M736.404 199.693C734.397 199.693 732.769 201.321 732.769 203.328C732.769 205.336 734.397 206.963 736.404 206.963C738.412 206.963 740.039 205.336 740.039 203.328C740.039 201.321 738.412 199.693 736.404 199.693Z" fill="white"/>
<path d="M759.34 217.195C760.95 218.817 760.941 221.447 759.319 223.058C757.696 224.669 755.065 224.659 753.456 223.037C751.846 221.415 751.855 218.785 753.477 217.174C754.284 216.373 755.341 215.972 756.398 215.972C757.464 215.972 758.53 216.38 759.34 217.195ZM754.196 217.899C752.973 219.113 752.967 221.095 754.179 222.318C755.392 223.54 757.375 223.548 758.598 222.334C759.821 221.12 759.827 219.137 758.614 217.915C757.401 216.693 755.418 216.686 754.196 217.899Z" fill="white"/>
<path d="M736.404 216.481C734.397 216.481 732.769 218.109 732.769 220.116C732.769 222.124 734.397 223.751 736.404 223.751C738.412 223.751 740.039 222.124 740.039 220.116C740.039 218.109 738.412 216.481 736.404 216.481Z" fill="white"/>
<path d="M756.398 233.269C754.391 233.269 752.763 234.897 752.763 236.904C752.763 238.912 754.391 240.539 756.398 240.539C758.406 240.539 760.033 238.912 760.033 236.904C760.033 234.897 758.406 233.269 756.398 233.269Z" fill="white"/>
<path d="M736.404 233.269C734.397 233.269 732.769 234.897 732.769 236.904C732.769 238.912 734.397 240.539 736.404 240.539C738.412 240.539 740.039 238.912 740.039 236.904C740.039 234.897 738.412 233.269 736.404 233.269Z" fill="white"/>
<path d="M736.404 306.359C734.397 306.359 732.769 307.987 732.769 309.994C732.769 312.002 734.397 313.629 736.404 313.629C738.412 313.629 740.039 312.002 740.039 309.994C740.039 307.987 738.412 306.359 736.404 306.359Z" fill="white"/>
<path d="M736.42 322.637C737.526 322.641 738.566 323.076 739.346 323.862C740.127 324.648 740.554 325.69 740.55 326.798C740.546 327.905 740.111 328.944 739.325 329.724C738.543 330.501 737.506 330.928 736.405 330.928C736.399 330.928 736.395 330.928 736.389 330.928C735.283 330.924 734.243 330.489 733.463 329.703C731.852 328.081 731.862 325.451 733.484 323.84C734.266 323.063 735.302 322.636 736.404 322.636C736.409 322.637 736.414 322.637 736.42 322.637ZM738.605 329C739.197 328.413 739.525 327.628 739.528 326.794C739.53 325.96 739.209 325.174 738.621 324.582C738.033 323.99 737.249 323.662 736.415 323.659C736.411 323.659 736.407 323.659 736.403 323.659C735.574 323.659 734.793 323.982 734.203 324.567C733.611 325.155 733.283 325.939 733.279 326.774C733.277 327.608 733.598 328.394 734.187 328.986C734.774 329.578 735.557 329.906 736.393 329.908C736.396 329.908 736.4 329.908 736.403 329.908C737.234 329.907 738.016 329.586 738.605 329Z" fill="white"/>
<path d="M736.404 269.378C734.397 269.378 732.769 271.006 732.769 273.013C732.769 275.021 734.397 276.648 736.404 276.648C738.412 276.648 740.039 275.021 740.039 273.013C740.039 271.006 738.412 269.378 736.404 269.378Z" fill="white"/>
<path d="M736.404 286.166C734.397 286.166 732.769 287.794 732.769 289.801C732.769 291.809 734.397 293.436 736.404 293.436C738.412 293.436 740.039 291.809 740.039 289.801C740.039 287.794 738.412 286.166 736.404 286.166Z" fill="white"/>
<path d="M736.404 254.795C734.397 254.795 732.769 256.423 732.769 258.43C732.769 260.438 734.397 262.065 736.404 262.065C738.412 262.065 740.039 260.438 740.039 258.43C740.039 256.423 738.412 254.795 736.404 254.795Z" fill="white"/>
<path d="M896.492 242.157C894.484 242.157 892.857 243.784 892.857 245.792C892.857 247.8 894.484 249.427 896.492 249.427C898.499 249.427 900.127 247.8 900.127 245.792C900.127 243.784 898.499 242.157 896.492 242.157Z" fill="white"/>
<path d="M896.492 258.946C894.484 258.946 892.857 260.574 892.857 262.581C892.857 264.589 894.484 266.216 896.492 266.216C898.499 266.216 900.127 264.589 900.127 262.581C900.127 260.574 898.499 258.946 896.492 258.946Z" fill="white"/>
<path d="M896.492 275.734C894.484 275.734 892.857 277.362 892.857 279.369C892.857 281.377 894.484 283.004 896.492 283.004C898.499 283.004 900.127 281.377 900.127 279.369C900.127 277.362 898.499 275.734 896.492 275.734Z" fill="white"/>
<path d="M896.492 309.311C894.484 309.311 892.857 310.939 892.857 312.946C892.857 314.954 894.484 316.581 896.492 316.581C898.499 316.581 900.127 314.954 900.127 312.946C900.127 310.939 898.499 309.311 896.492 309.311Z" fill="white"/>
<path d="M896.492 326.099C894.484 326.099 892.857 327.727 892.857 329.734C892.857 331.742 894.484 333.369 896.492 333.369C898.499 333.369 900.127 331.742 900.127 329.734C900.127 327.727 898.499 326.099 896.492 326.099Z" fill="white"/>
<path opacity="0.3" d="M1016.45 309.786C1014.44 309.786 1012.82 311.414 1012.82 313.421C1012.82 315.429 1014.44 317.056 1016.45 317.056C1018.46 317.056 1020.09 315.429 1020.09 313.421C1020.09 311.414 1018.46 309.786 1016.45 309.786Z" fill="white"/>
<path d="M1016.45 326.574C1014.44 326.574 1012.82 328.201 1012.82 330.209C1012.82 332.217 1014.44 333.844 1016.45 333.844C1018.46 333.844 1020.09 332.217 1020.09 330.209C1020.09 328.201 1018.46 326.574 1016.45 326.574Z" fill="white"/>
</g>
</svg>
